<svg width="25" height="16" viewBox="0 0 25 16" fill="none" xmlns="http://www.w3.org/2000/svg">
<path d="M0.293599 6.96017C-0.096925 7.35069 -0.0969246 7.98386 0.293599 8.37438L6.65756 14.7383C7.04809 15.1289 7.68125 15.1289 8.07177 14.7383C8.4623 14.3478 8.4623 13.7147 8.07177 13.3241L2.41492 7.66727L8.07177 2.01042C8.4623 1.61989 8.4623 0.986729 8.07177 0.596205C7.68125 0.205681 7.04808 0.20568 6.65756 0.596205L0.293599 6.96017ZM24.3352 6.66727C24.3054 6.66727 24.2756 6.66727 24.2458 6.66727C24.2161 6.66727 24.1863 6.66727 24.1566 6.66727C24.1269 6.66727 24.0973 6.66727 24.0676 6.66727C24.038 6.66727 24.0084 6.66727 23.9788 6.66727C23.9493 6.66727 23.9197 6.66727 23.8902 6.66727C23.8607 6.66727 23.8313 6.66727 23.8018 6.66727C23.7724 6.66727 23.743 6.66727 23.7136 6.66727C23.6842 6.66727 23.6549 6.66727 23.6256 6.66727C23.5963 6.66727 23.567 6.66727 23.5378 6.66727C23.5085 6.66727 23.4793 6.66727 23.4501 6.66727C23.421 6.66727 23.3918 6.66727 23.3627 6.66727C23.3336 6.66727 23.3045 6.66727 23.2755 6.66727C23.2464 6.66727 23.2174 6.66727 23.1884 6.66727C23.1595 6.66727 23.1305 6.66727 23.1016 6.66727C23.0727 6.66727 23.0438 6.66727 23.015 6.66727C22.9861 6.66727 22.9573 6.66727 22.9285 6.66727C22.8997 6.66727 22.871 6.66727 22.8423 6.66727C22.8135 6.66727 22.7848 6.66727 22.7562 6.66727C22.7275 6.66727 22.6989 6.66727 22.6703 6.66727C22.6417 6.66727 22.6132 6.66727 22.5847 6.66727C22.5561 6.66727 22.5276 6.66727 22.4992 6.66727C22.4707 6.66727 22.4423 6.66727 22.4139 6.66727C22.3855 6.66727 22.3571 6.66727 22.3288 6.66727C22.3005 6.66727 22.2722 6.66727 22.2439 6.66727C22.2156 6.66727 22.1874 6.66727 22.1592 6.66727C22.131 6.66727 22.1028 6.66727 22.0747 6.66727C22.0466 6.66727 22.0185 6.66727 21.9904 6.66727C21.9623 6.66727 21.9343 6.66727 21.9063 6.66727C21.8783 6.66727 21.8503 6.66727 21.8223 6.66727C21.7944 6.66727 21.7665 6.66727 21.7386 6.66727C21.7107 6.66727 21.6829 6.66727 21.6551 6.66727C21.6272 6.66727 21.5995 6.66727 21.5717 6.66727C21.544 6.66727 21.5162 6.66727 21.4886 6.66727C21.4609 6.66727 21.4332 6.66727 21.4056 6.66727C21.378 6.66727 21.3504 6.66727 21.3228 6.66727C21.2953 6.66727 21.2677 6.66727 21.2402 6.66727C21.2127 6.66727 21.1853 6.66727 21.1579 6.66727C21.1304 6.66727 21.103 6.66727 21.0757 6.66727C21.0483 6.66727 21.021 6.66727 20.9937 6.66727C20.9664 6.66727 20.9391 6.66727 20.9118 6.66727C20.8846 6.66727 20.8574 6.66727 20.8302 6.66727C20.803 6.66727 20.7759 6.66727 20.7488 6.66727C20.7217 6.66727 20.6946 6.66727 20.6676 6.66727C20.6405 6.66727 20.6135 6.66727 20.5865 6.66727C20.5595 6.66727 20.5326 6.66727 20.5056 6.66727C20.4787 6.66727 20.4518 6.66727 20.425 6.66727C20.3981 6.66727 20.3713 6.66727 20.3445 6.66727C20.3177 6.66727 20.291 6.66727 20.2642 6.66727C20.2375 6.66727 20.2108 6.66727 20.1841 6.66727C20.1575 6.66727 20.1308 6.66727 20.1042 6.66727C20.0776 6.66727 20.051 6.66727 20.0245 6.66727C19.998 6.66727 19.9715 6.66727 19.945 6.66727C19.9185 6.66727 19.8921 6.66727 19.8656 6.66727C19.8392 6.66727 19.8128 6.66727 19.7865 6.66727C19.7601 6.66727 19.7338 6.66727 19.7075 6.66727C19.6813 6.66727 19.655 6.66727 19.6288 6.66727C19.6025 6.66727 19.5764 6.66727 19.5502 6.66727C19.524 6.66727 19.4979 6.66727 19.4718 6.66727C19.4457 6.66727 19.4196 6.66727 19.3936 6.66727C19.3676 6.66727 19.3416 6.66727 19.3156 6.66727C19.2896 6.66727 19.2637 6.66727 19.2378 6.66727C19.2118 6.66727 19.186 6.66727 19.1601 6.66727C19.1343 6.66727 19.1085 6.66727 19.0827 6.66727C19.0569 6.66727 19.0311 6.66727 19.0054 6.66727C18.9797 6.66727 18.954 6.66727 18.9283 6.66727C18.9027 6.66727 18.8771 6.66727 18.8515 6.66727C18.8259 6.66727 18.8003 6.66727 18.7748 6.66727C18.7492 6.66727 18.7237 6.66727 18.6982 6.66727C18.6728 6.66727 18.6473 6.66727 18.6219 6.66727C18.5965 6.66727 18.5711 6.66727 18.5458 6.66727C18.5204 6.66727 18.4951 6.66727 18.4698 6.66727C18.4445 6.66727 18.4193 6.66727 18.3941 6.66727C18.3688 6.66727 18.3437 6.66727 18.3185 6.66727C18.2933 6.66727 18.2682 6.66727 18.2431 6.66727C18.218 6.66727 18.1929 6.66727 18.1679 6.66727C18.1429 6.66727 18.1179 6.66727 18.0929 6.66727C18.0679 6.66727 18.043 6.66727 18.018 6.66727C17.9931 6.66727 17.9683 6.66727 17.9434 6.66727C17.9185 6.66727 17.8937 6.66727 17.8689 6.66727C17.8442 6.66727 17.8194 6.66727 17.7947 6.66727C17.7699 6.66727 17.7452 6.66727 17.7206 6.66727C17.6959 6.66727 17.6713 6.66727 17.6467 6.66727C17.6221 6.66727 17.5975 6.66727 17.5729 6.66727C17.5484 6.66727 17.5239 6.66727 17.4994 6.66727C17.4749 6.66727 17.4505 6.66727 17.4261 6.66727C17.4016 6.66727 17.3773 6.66727 17.3529 6.66727C17.3285 6.66727 17.3042 6.66727 17.2799 6.66727C17.2556 6.66727 17.2314 6.66727 17.2071 6.66727C17.1829 6.66727 17.1587 6.66727 17.1345 6.66727C17.1103 6.66727 17.0862 6.66727 17.0621 6.66727C17.038 6.66727 17.0139 6.66727 16.9898 6.66727C16.9658 6.66727 16.9418 6.66727 16.9178 6.66727C16.8938 6.66727 16.8698 6.66727 16.8459 6.66727C16.822 6.66727 16.7981 6.66727 16.7742 6.66727C16.7503 6.66727 16.7265 6.66727 16.7027 6.66727C16.6789 6.66727 16.6551 6.66727 16.6314 6.66727C16.6076 6.66727 16.5839 6.66727 16.5602 6.66727C16.5365 6.66727 16.5129 6.66727 16.4892 6.66727C16.4656 6.66727 16.442 6.66727 16.4185 6.66727C16.3949 6.66727 16.3714 6.66727 16.3479 6.66727C16.3244 6.66727 16.3009 6.66727 16.2775 6.66727C16.254 6.66727 16.2306 6.66727 16.2072 6.66727C16.1838 6.66727 16.1605 6.66727 16.1372 6.66727C16.1138 6.66727 16.0906 6.66727 16.0673 6.66727C16.044 6.66727 16.0208 6.66727 15.9976 6.66727C15.9744 6.66727 15.9512 6.66727 15.9281 6.66727C15.905 6.66727 15.8819 6.66727 15.8588 6.66727C15.8357 6.66727 15.8127 6.66727 15.7896 6.66727C15.7666 6.66727 15.7436 6.66727 15.7207 6.66727C15.6977 6.66727 15.6748 6.66727 15.6519 6.66727C15.629 6.66727 15.6061 6.66727 15.5833 6.66727C15.5604 6.66727 15.5376 6.66727 15.5149 6.66727C15.4921 6.66727 15.4693 6.66727 15.4466 6.66727C15.4239 6.66727 15.4012 6.66727 15.3786 6.66727C15.3559 6.66727 15.3333 6.66727 15.3107 6.66727C15.2881 6.66727 15.2655 6.66727 15.243 6.66727C15.2204 6.66727 15.1979 6.66727 15.1755 6.66727C15.153 6.66727 15.1305 6.66727 15.1081 6.66727C15.0857 6.66727 15.0633 6.66727 15.041 6.66727C15.0186 6.66727 14.9963 6.66727 14.974 6.66727C14.9517 6.66727 14.9294 6.66727 14.9072 6.66727C14.8849 6.66727 14.8627 6.66727 14.8406 6.66727C14.8184 6.66727 14.7962 6.66727 14.7741 6.66727C14.752 6.66727 14.7299 6.66727 14.7078 6.66727C14.6858 6.66727 14.6638 6.66727 14.6418 6.66727C14.6198 6.66727 14.5978 6.66727 14.5759 6.66727C14.5539 6.66727 14.532 6.66727 14.5101 6.66727C14.4882 6.66727 14.4664 6.66727 14.4446 6.66727C14.4228 6.66727 14.401 6.66727 14.3792 6.66727C14.3574 6.66727 14.3357 6.66727 14.314 6.66727C14.2923 6.66727 14.2706 6.66727 14.249 6.66727C14.2273 6.66727 14.2057 6.66727 14.1841 6.66727C14.1626 6.66727 14.141 6.66727 14.1195 6.66727C14.098 6.66727 14.0765 6.66727 14.055 6.66727C14.0335 6.66727 14.0121 6.66727 13.9907 6.66727C13.9693 6.66727 13.9479 6.66727 13.9266 6.66727C13.9052 6.66727 13.8839 6.66727 13.8626 6.66727C13.8413 6.66727 13.8201 6.66727 13.7988 6.66727C13.7776 6.66727 13.7564 6.66727 13.7352 6.66727C13.7141 6.66727 13.6929 6.66727 13.6718 6.66727C13.6507 6.66727 13.6296 6.66727 13.6085 6.66727C13.5875 6.66727 13.5665 6.66727 13.5455 6.66727C13.5245 6.66727 13.5035 6.66727 13.4826 6.66727C13.4616 6.66727 13.4407 6.66727 13.4199 6.66727C13.399 6.66727 13.3781 6.66727 13.3573 6.66727C13.3365 6.66727 13.3157 6.66727 13.2949 6.66727C13.2742 6.66727 13.2534 6.66727 13.2327 6.66727C13.212 6.66727 13.1914 6.66727 13.1707 6.66727C13.1501 6.66727 13.1295 6.66727 13.1089 6.66727C13.0883 6.66727 13.0677 6.66727 13.0472 6.66727C13.0267 6.66727 13.0062 6.66727 12.9857 6.66727C12.9652 6.66727 12.9448 6.66727 12.9244 6.66727C12.904 6.66727 12.8836 6.66727 12.8632 6.66727C12.8429 6.66727 12.8226 6.66727 12.8023 6.66727C12.782 6.66727 12.7617 6.66727 12.7415 6.66727C12.7212 6.66727 12.701 6.66727 12.6809 6.66727C12.6607 6.66727 12.6405 6.66727 12.6204 6.66727C12.6003 6.66727 12.5802 6.66727 12.5601 6.66727C12.5401 6.66727 12.52 6.66727 12.5 6.66727C12.48 6.66727 12.46 6.66727 12.4401 6.66727C12.4201 6.66727 12.4002 6.66727 12.3803 6.66727C12.3604 6.66727 12.3406 6.66727 12.3208 6.66727C12.3009 6.66727 12.2811 6.66727 12.2613 6.66727C12.2416 6.66727 12.2218 6.66727 12.2021 6.66727C12.1824 6.66727 12.1627 6.66727 12.143 6.66727C12.1234 6.66727 12.1037 6.66727 12.0841 6.66727C12.0645 6.66727 12.045 6.66727 12.0254 6.66727C12.0059 6.66727 11.9864 6.66727 11.9669 6.66727C11.9474 6.66727 11.9279 6.66727 11.9085 6.66727C11.8891 6.66727 11.8697 6.66727 11.8503 6.66727C11.8309 6.66727 11.8116 6.66727 11.7923 6.66727C11.7729 6.66727 11.7537 6.66727 11.7344 6.66727C11.7151 6.66727 11.6959 6.66727 11.6767 6.66727C11.6575 6.66727 11.6383 6.66727 11.6192 6.66727C11.6 6.66727 11.5809 6.66727 11.5618 6.66727C11.5427 6.66727 11.5237 6.66727 11.5047 6.66727C11.4856 6.66727 11.4666 6.66727 11.4477 6.66727C11.4287 6.66727 11.4097 6.66727 11.3908 6.66727C11.3719 6.66727 11.353 6.66727 11.3342 6.66727C11.3153 6.66727 11.2965 6.66727 11.2777 6.66727C11.2589 6.66727 11.2401 6.66727 11.2213 6.66727C11.2026 6.66727 11.1839 6.66727 11.1652 6.66727C11.1465 6.66727 11.1278 6.66727 11.1092 6.66727C11.0906 6.66727 11.072 6.66727 11.0534 6.66727C11.0348 6.66727 11.0162 6.66727 10.9977 6.66727C10.9792 6.66727 10.9607 6.66727 10.9423 6.66727C10.9238 6.66727 10.9054 6.66727 10.8869 6.66727C10.8685 6.66727 10.8502 6.66727 10.8318 6.66727C10.8135 6.66727 10.7951 6.66727 10.7768 6.66727C10.7585 6.66727 10.7403 6.66727 10.722 6.66727C10.7038 6.66727 10.6856 6.66727 10.6674 6.66727C10.6492 6.66727 10.6311 6.66727 10.6129 6.66727C10.5948 6.66727 10.5767 6.66727 10.5586 6.66727C10.5406 6.66727 10.5225 6.66727 10.5045 6.66727C10.4865 6.66727 10.4685 6.66727 10.4506 6.66727C10.4326 6.66727 10.4147 6.66727 10.3968 6.66727C10.3789 6.66727 10.361 6.66727 10.3431 6.66727C10.3253 6.66727 10.3075 6.66727 10.2897 6.66727C10.2719 6.66727 10.2541 6.66727 10.2364 6.66727C10.2187 6.66727 10.201 6.66727 10.1833 6.66727C10.1656 6.66727 10.1479 6.66727 10.1303 6.66727C10.1127 6.66727 10.0951 6.66727 10.0775 6.66727C10.06 6.66727 10.0424 6.66727 10.0249 6.66727C10.0074 6.66727 9.98992 6.66727 9.97246 6.66727C9.955 6.66727 9.93757 6.66727 9.92017 6.66727C9.90277 6.66727 9.8854 6.66727 9.86805 6.66727C9.8507 6.66727 9.83339 6.66727 9.8161 6.66727C9.7988 6.66727 9.78154 6.66727 9.76431 6.66727C9.74707 6.66727 9.72986 6.66727 9.71268 6.66727C9.6955 6.66727 9.67835 6.66727 9.66123 6.66727C9.6441 6.66727 9.627 6.66727 9.60994 6.66727C9.59287 6.66727 9.57582 6.66727 9.55881 6.66727C9.54179 6.66727 9.52481 6.66727 9.50785 6.66727C9.49089 6.66727 9.47396 6.66727 9.45705 6.66727C9.44015 6.66727 9.42327 6.66727 9.40642 6.66727C9.38957 6.66727 9.37275 6.66727 9.35596 6.66727C9.33916 6.66727 9.32239 6.66727 9.30565 6.66727C9.28891 6.66727 9.2722 6.66727 9.25552 6.66727C9.23883 6.66727 9.22217 6.66727 9.20554 6.66727C9.18891 6.66727 9.17231 6.66727 9.15574 6.66727C9.13916 6.66727 9.12261 6.66727 9.10609 6.66727C9.08957 6.66727 9.07308 6.66727 9.05661 6.66727C9.04015 6.66727 9.02371 6.66727 9.0073 6.66727C8.99088 6.66727 8.9745 6.66727 8.95814 6.66727C8.94179 6.66727 8.92546 6.66727 8.90915 6.66727C8.89285 6.66727 8.87658 6.66727 8.86033 6.66727C8.84408 6.66727 8.82786 6.66727 8.81166 6.66727C8.79547 6.66727 8.7793 6.66727 8.76316 6.66727C8.74703 6.66727 8.73091 6.66727 8.71483 6.66727C8.69874 6.66727 8.68268 6.66727 8.66665 6.66727C8.65062 6.66727 8.63462 6.66727 8.61864 6.66727C8.60266 6.66727 8.58672 6.66727 8.57079 6.66727C8.55487 6.66727 8.53897 6.66727 8.52311 6.66727C8.50724 6.66727 8.49139 6.66727 8.47558 6.66727C8.45977 6.66727 8.44398 6.66727 8.42822 6.66727C8.41246 6.66727 8.39672 6.66727 8.38102 6.66727C8.36531 6.66727 8.34963 6.66727 8.33398 6.66727C8.31832 6.66727 8.3027 6.66727 8.2871 6.66727C8.2715 6.66727 8.25593 6.66727 8.24038 6.66727C8.22484 6.66727 8.20932 6.66727 8.19383 6.66727C8.17833 6.66727 8.16287 6.66727 8.14743 6.66727C8.13199 6.66727 8.11658 6.66727 8.1012 6.66727C8.08581 6.66727 8.07045 6.66727 8.05512 6.66727C8.03979 6.66727 8.02449 6.66727 8.00921 6.66727C7.99393 6.66727 7.97868 6.66727 7.96346 6.66727C7.94824 6.66727 7.93304 6.66727 7.91787 6.66727C7.9027 6.66727 7.88755 6.66727 7.87244 6.66727C7.85732 6.66727 7.84223 6.66727 7.82716 6.66727C7.8121 6.66727 7.79706 6.66727 7.78205 6.66727C7.76704 6.66727 7.75206 6.66727 7.7371 6.66727C7.72214 6.66727 7.70721 6.66727 7.69231 6.66727C7.6774 6.66727 7.66253 6.66727 7.64768 6.66727C7.63282 6.66727 7.618 6.66727 7.6032 6.66727C7.5884 6.66727 7.57363 6.66727 7.55889 6.66727C7.54414 6.66727 7.52942 6.66727 7.51473 6.66727C7.50004 6.66727 7.48537 6.66727 7.47073 6.66727C7.45609 6.66727 7.44148 6.66727 7.42689 6.66727C7.41231 6.66727 7.39775 6.66727 7.38321 6.66727C7.36868 6.66727 7.35417 6.66727 7.33969 6.66727C7.32521 6.66727 7.31076 6.66727 7.29633 6.66727C7.2819 6.66727 7.2675 6.66727 7.25312 6.66727C7.23875 6.66727 7.2244 6.66727 7.21007 6.66727C7.19575 6.66727 7.18145 6.66727 7.16718 6.66727C7.15291 6.66727 7.13867 6.66727 7.12445 6.66727C7.11023 6.66727 7.09604 6.66727 7.08188 6.66727C7.06771 6.66727 7.05357 6.66727 7.03946 6.66727C7.02535 6.66727 7.01126 6.66727 6.9972 6.66727C6.98314 6.66727 6.9691 6.66727 6.95509 6.66727C6.94109 6.66727 6.9271 6.66727 6.91315 6.66727C6.89919 6.66727 6.88526 6.66727 6.87136 6.66727C6.85745 6.66727 6.84357 6.66727 6.82972 6.66727C6.81587 6.66727 6.80204 6.66727 6.78824 6.66727C6.77444 6.66727 6.76067 6.66727 6.74692 6.66727C6.73317 6.66727 6.71945 6.66727 6.70576 6.66727C6.69206 6.66727 6.67839 6.66727 6.66475 6.66727C6.6511 6.66727 6.63748 6.66727 6.62389 6.66727C6.6103 6.66727 6.59673 6.66727 6.58319 6.66727C6.56965 6.66727 6.55614 6.66727 6.54265 6.66727C6.52916 6.66727 6.5157 6.66727 6.50226 6.66727C6.48883 6.66727 6.47542 6.66727 6.46203 6.66727C6.44865 6.66727 6.43529 6.66727 6.42195 6.66727C6.40862 6.66727 6.39531 6.66727 6.38203 6.66727C6.36875 6.66727 6.35549 6.66727 6.34226 6.66727C6.32903 6.66727 6.31583 6.66727 6.30265 6.66727C6.28947 6.66727 6.27632 6.66727 6.26319 6.66727C6.25006 6.66727 6.23696 6.66727 6.22388 6.66727C6.21081 6.66727 6.19776 6.66727 6.18473 6.66727C6.17171 6.66727 6.15871 6.66727 6.14574 6.66727C6.13276 6.66727 6.11982 6.66727 6.10689 6.66727C6.09397 6.66727 6.08107 6.66727 6.0682 6.66727C6.05533 6.66727 6.04249 6.66727 6.02967 6.66727C6.01685 6.66727 6.00405 6.66727 5.99128 6.66727C5.97851 6.66727 5.96577 6.66727 5.95305 6.66727C5.94034 6.66727 5.92764 6.66727 5.91498 6.66727C5.90231 6.66727 5.88967 6.66727 5.87705 6.66727C5.86444 6.66727 5.85185 6.66727 5.83928 6.66727C5.82672 6.66727 5.81418 6.66727 5.80166 6.66727C5.78915 6.66727 5.77666 6.66727 5.7642 6.66727C5.75173 6.66727 5.73929 6.66727 5.72688 6.66727C5.71447 6.66727 5.70208 6.66727 5.68972 6.66727C5.67736 6.66727 5.66502 6.66727 5.65271 6.66727C5.6404 6.66727 5.62811 6.66727 5.61585 6.66727C5.60359 6.66727 5.59135 6.66727 5.57914 6.66727C5.56693 6.66727 5.55475 6.66727 5.54259 6.66727C5.53043 6.66727 5.5183 6.66727 5.50619 6.66727C5.49408 6.66727 5.48199 6.66727 5.46993 6.66727C5.45787 6.66727 5.44584 6.66727 5.43383 6.66727C5.42182 6.66727 5.40984 6.66727 5.39788 6.66727C5.38592 6.66727 5.37399 6.66727 5.36208 6.66727C5.35017 6.66727 5.33829 6.66727 5.32643 6.66727C5.31457 6.66727 5.30274 6.66727 5.29093 6.66727C5.27912 6.66727 5.26734 6.66727 5.25558 6.66727C5.24382 6.66727 5.23209 6.66727 5.22038 6.66727C5.20867 6.66727 5.19699 6.66727 5.18533 6.66727C5.17368 6.66727 5.16204 6.66727 5.15044 6.66727C5.13883 6.66727 5.12724 6.66727 5.11569 6.66727C5.10413 6.66727 5.09259 6.66727 5.08109 6.66727C5.06958 6.66727 5.05809 6.66727 5.04664 6.66727C5.03518 6.66727 5.02374 6.66727 5.01233 6.66727C5.00092 6.66727 4.98954 6.66727 4.97818 6.66727C4.96682 6.66727 4.95549 6.66727 4.94418 6.66727C4.93287 6.66727 4.92158 6.66727 4.91032 6.66727C4.89906 6.66727 4.88783 6.66727 4.87662 6.66727C4.86541 6.66727 4.85422 6.66727 4.84306 6.66727C4.8319 6.66727 4.82076 6.66727 4.80965 6.66727C4.79854 6.66727 4.78745 6.66727 4.77639 6.66727C4.76533 6.66727 4.75429 6.66727 4.74328 6.66727C4.73226 6.66727 4.72127 6.66727 4.71031 6.66727C4.69935 6.66727 4.68841 6.66727 4.67749 6.66727C4.66658 6.66727 4.65569 6.66727 4.64482 6.66727C4.63396 6.66727 4.62312 6.66727 4.6123 6.66727C4.60148 6.66727 4.59069 6.66727 4.57992 6.66727C4.56916 6.66727 4.55841 6.66727 4.5477 6.66727C4.53698 6.66727 4.52628 6.66727 4.51561 6.66727C4.50494 6.66727 4.4943 6.66727 4.48368 6.66727C4.47306 6.66727 4.46246 6.66727 4.45189 6.66727C4.44132 6.66727 4.43077 6.66727 4.42025 6.66727C4.40973 6.66727 4.39923 6.66727 4.38875 6.66727C4.37828 6.66727 4.36783 6.66727 4.35741 6.66727C4.34698 6.66727 4.33658 6.66727 4.3262 6.66727C4.31582 6.66727 4.30547 6.66727 4.29514 6.66727C4.28482 6.66727 4.27451 6.66727 4.26423 6.66727C4.25395 6.66727 4.2437 6.66727 4.23347 6.66727C4.22324 6.66727 4.21303 6.66727 4.20285 6.66727C4.19266 6.66727 4.1825 6.66727 4.17237 6.66727C4.16224 6.66727 4.15213 6.66727 4.14204 6.66727C4.13195 6.66727 4.12189 6.66727 4.11185 6.66727C4.10182 6.66727 4.0918 6.66727 4.08181 6.66727C4.07182 6.66727 4.06186 6.66727 4.05192 6.66727C4.04198 6.66727 4.03206 6.66727 4.02217 6.66727C4.01227 6.66727 4.0024 6.66727 3.99256 6.66727C3.98271 6.66727 3.97289 6.66727 3.9631 6.66727C3.9533 6.66727 3.94353 6.66727 3.93378 6.66727C3.92403 6.66727 3.9143 6.66727 3.9046 6.66727C3.8949 6.66727 3.88522 6.66727 3.87557 6.66727C3.86592 6.66727 3.85629 6.66727 3.84668 6.66727C3.83708 6.66727 3.8275 6.66727 3.81794 6.66727C3.80838 6.66727 3.79885 6.66727 3.78934 6.66727C3.77983 6.66727 3.77034 6.66727 3.76088 6.66727C3.75142 6.66727 3.74198 6.66727 3.73257 6.66727C3.72315 6.66727 3.71376 6.66727 3.70439 6.66727C3.69503 6.66727 3.68568 6.66727 3.67636 6.66727C3.66705 6.66727 3.65775 6.66727 3.64848 6.66727C3.63921 6.66727 3.62996 6.66727 3.62073 6.66727C3.61151 6.66727 3.60231 6.66727 3.59313 6.66727C3.58395 6.66727 3.5748 6.66727 3.56567 6.66727C3.55654 6.66727 3.54744 6.66727 3.53835 6.66727C3.52927 6.66727 3.52021 6.66727 3.51118 6.66727C3.50214 6.66727 3.49313 6.66727 3.48414 6.66727C3.47515 6.66727 3.46619 6.66727 3.45725 6.66727C3.44831 6.66727 3.43939 6.66727 3.4305 6.66727C3.4216 6.66727 3.41273 6.66727 3.40389 6.66727C3.39504 6.66727 3.38622 6.66727 3.37742 6.66727C3.36862 6.66727 3.35984 6.66727 3.35109 6.66727C3.34233 6.66727 3.3336 6.66727 3.3249 6.66727C3.31619 6.66727 3.30751 6.66727 3.29885 6.66727C3.29019 6.66727 3.28156 6.66727 3.27294 6.66727C3.26433 6.66727 3.25574 6.66727 3.24718 6.66727C3.23861 6.66727 3.23007 6.66727 3.22155 6.66727C3.21303 6.66727 3.20453 6.66727 3.19606 6.66727C3.18759 6.66727 3.17914 6.66727 3.17071 6.66727C3.16229 6.66727 3.15389 6.66727 3.14551 6.66727C3.13713 6.66727 3.12877 6.66727 3.12044 6.66727C3.11211 6.66727 3.1038 6.66727 3.09551 6.66727C3.08722 6.66727 3.07896 6.66727 3.07072 6.66727C3.06248 6.66727 3.05426 6.66727 3.04607 6.66727C3.03788 6.66727 3.02971 6.66727 3.02156 6.66727C3.01341 6.66727 3.00529 6.66727 2.99718 6.66727C2.98908 6.66727 2.98101 6.66727 2.97295 6.66727C2.9649 6.66727 2.95686 6.66727 2.94885 6.66727C2.94085 6.66727 2.93286 6.66727 2.9249 6.66727C2.91693 6.66727 2.90899 6.66727 2.90108 6.66727C2.89316 6.66727 2.88527 6.66727 2.8774 6.66727C2.86952 6.66727 2.86168 6.66727 2.85385 6.66727C2.84603 6.66727 2.83822 6.66727 2.83045 6.66727C2.82267 6.66727 2.81491 6.66727 2.80718 6.66727C2.79944 6.66727 2.79173 6.66727 2.78405 6.66727C2.77636 6.66727 2.76869 6.66727 2.76105 6.66727C2.75341 6.66727 2.74579 6.66727 2.73819 6.66727C2.7306 6.66727 2.72302 6.66727 2.71547 6.66727C2.70792 6.66727 2.7004 6.66727 2.69289 6.66727C2.68539 6.66727 2.6779 6.66727 2.67044 6.66727C2.66298 6.66727 2.65555 6.66727 2.64813 6.66727C2.64072 6.66727 2.63333 6.66727 2.62596 6.66727C2.61859 6.66727 2.61125 6.66727 2.60392 6.66727C2.5966 6.66727 2.5893 6.66727 2.58202 6.66727C2.57474 6.66727 2.56749 6.66727 2.56025 6.66727C2.55302 6.66727 2.54581 6.66727 2.53862 6.66727C2.53144 6.66727 2.52427 6.66727 2.51713 6.66727C2.50999 6.66727 2.50287 6.66727 2.49577 6.66727C2.48867 6.66727 2.4816 6.66727 2.47455 6.66727C2.46749 6.66727 2.46046 6.66727 2.45346 6.66727C2.44645 6.66727 2.43947 6.66727 2.4325 6.66727C2.42554 6.66727 2.4186 6.66727 2.41168 6.66727C2.40477 6.66727 2.39787 6.66727 2.391 6.66727C2.38413 6.66727 2.37728 6.66727 2.37045 6.66727C2.36362 6.66727 2.35682 6.66727 2.35003 6.66727C2.34325 6.66727 2.33649 6.66727 2.32975 6.66727C2.32301 6.66727 2.3163 6.66727 2.3096 6.66727C2.30291 6.66727 2.29624 6.66727 2.28959 6.66727C2.28294 6.66727 2.27631 6.66727 2.26971 6.66727C2.26311 6.66727 2.25652 6.66727 2.24996 6.66727C2.2434 6.66727 2.23687 6.66727 2.23035 6.66727C2.22384 6.66727 2.21734 6.66727 2.21087 6.66727C2.2044 6.66727 2.19795 6.66727 2.19152 6.66727C2.1851 6.66727 2.17869 6.66727 2.17231 6.66727C2.16593 6.66727 2.15957 6.66727 2.15323 6.66727C2.14689 6.66727 2.14058 6.66727 2.13428 6.66727C2.12799 6.66727 2.12172 6.66727 2.11547 6.66727C2.10922 6.66727 2.10299 6.66727 2.09678 6.66727C2.09058 6.66727 2.08439 6.66727 2.07823 6.66727C2.07207 6.66727 2.06593 6.66727 2.05981 6.66727C2.05369 6.66727 2.0476 6.66727 2.04153 6.66727C2.03545 6.66727 2.0294 6.66727 2.02337 6.66727C2.01734 6.66727 2.01133 6.66727 2.00535 6.66727C1.99936 6.66727 1.9934 6.66727 1.98745 6.66727C1.98151 6.66727 1.97559 6.66727 1.96969 6.66727C1.96379 6.66727 1.95792 6.66727 1.95206 6.66727C1.94621 6.66727 1.94038 6.66727 1.93456 6.66727C1.92875 6.66727 1.92296 6.66727 1.9172 6.66727C1.91143 6.66727 1.90568 6.66727 1.89996 6.66727C1.89423 6.66727 1.88853 6.66727 1.88285 6.66727C1.87717 6.66727 1.87151 6.66727 1.86587 6.66727C1.86024 6.66727 1.85462 6.66727 1.84903 6.66727C1.84343 6.66727 1.83786 6.66727 1.83231 6.66727C1.82676 6.66727 1.82123 6.66727 1.81573 6.66727C1.81022 6.66727 1.80473 6.66727 1.79927 6.66727C1.79381 6.66727 1.78836 6.66727 1.78294 6.66727C1.77752 6.66727 1.77212 6.66727 1.76674 6.66727C1.76137 6.66727 1.75601 6.66727 1.75068 6.66727C1.74534 6.66727 1.74003 6.66727 1.73474 6.66727C1.72945 6.66727 1.72418 6.66727 1.71893 6.66727C1.71368 6.66727 1.70845 6.66727 1.70325 6.66727C1.69804 6.66727 1.69286 6.66727 1.68769 6.66727C1.68253 6.66727 1.67739 6.66727 1.67227 6.66727C1.66715 6.66727 1.66205 6.66727 1.65698 6.66727C1.6519 6.66727 1.64684 6.66727 1.64181 6.66727C1.63678 6.66727 1.63176 6.66727 1.62677 6.66727C1.62178 6.66727 1.61681 6.66727 1.61186 6.66727C1.60691 6.66727 1.60198 6.66727 1.59708 6.66727C1.59217 6.66727 1.58728 6.66727 1.58242 6.66727C1.57756 6.66727 1.57271 6.66727 1.56789 6.66727C1.56307 6.66727 1.55827 6.66727 1.55349 6.66727C1.54871 6.66727 1.54396 6.66727 1.53922 6.66727C1.53448 6.66727 1.52977 6.66727 1.52507 6.66727C1.52038 6.66727 1.51571 6.66727 1.51105 6.66727C1.5064 6.66727 1.50177 6.66727 1.49716 6.66727C1.49255 6.66727 1.48796 6.66727 1.48339 6.66727C1.47883 6.66727 1.47428 6.66727 1.46975 6.66727C1.46523 6.66727 1.46072 6.66727 1.45624 6.66727C1.45176 6.66727 1.44729 6.66727 1.44285 6.66727C1.43841 6.66727 1.43399 6.66727 1.42959 6.66727C1.42519 6.66727 1.42081 6.66727 1.41646 6.66727C1.4121 6.66727 1.40776 6.66727 1.40345 6.66727C1.39913 6.66727 1.39484 6.66727 1.39056 6.66727C1.38629 6.66727 1.38204 6.66727 1.3778 6.66727C1.37357 6.66727 1.36936 6.66727 1.36517 6.66727C1.36098 6.66727 1.35681 6.66727 1.35266 6.66727C1.34851 6.66727 1.34439 6.66727 1.34028 6.66727C1.33617 6.66727 1.33209 6.66727 1.32802 6.66727C1.32395 6.66727 1.31991 6.66727 1.31588 6.66727C1.31186 6.66727 1.30786 6.66727 1.30388 6.66727C1.29989 6.66727 1.29593 6.66727 1.29199 6.66727C1.28805 6.66727 1.28413 6.66727 1.28023 6.66727C1.27633 6.66727 1.27245 6.66727 1.26859 6.66727C1.26473 6.66727 1.2609 6.66727 1.25708 6.66727C1.25326 6.66727 1.24946 6.66727 1.24569 6.66727C1.24191 6.66727 1.23816 6.66727 1.23442 6.66727C1.23069 6.66727 1.22697 6.66727 1.22328 6.66727C1.21959 6.66727 1.21591 6.66727 1.21226 6.66727C1.20861 6.66727 1.20497 6.66727 1.20136 6.66727C1.19775 6.66727 1.19416 6.66727 1.19059 6.66727C1.18702 6.66727 1.18347 6.66727 1.17994 6.66727C1.17641 6.66727 1.1729 6.66727 1.16941 6.66727C1.16592 6.66727 1.16245 6.66727 1.159 6.66727C1.15556 6.66727 1.15213 6.66727 1.14872 6.66727C1.14531 6.66727 1.14193 6.66727 1.13856 6.66727C1.13519 6.66727 1.13185 6.66727 1.12852 6.66727C1.1252 6.66727 1.12189 6.66727 1.11861 6.66727C1.11532 6.66727 1.11205 6.66727 1.10881 6.66727C1.10556 6.66727 1.10234 6.66727 1.09914 6.66727C1.09593 6.66727 1.09275 6.66727 1.08958 6.66727C1.08642 6.66727 1.08328 6.66727 1.08015 6.66727C1.07703 6.66727 1.07393 6.66727 1.07084 6.66727C1.06776 6.66727 1.0647 6.66727 1.06165 6.66727C1.05861 6.66727 1.05559 6.66727 1.05259 6.66727C1.04958 6.66727 1.0466 6.66727 1.04364 6.66727C1.04068 6.66727 1.03773 6.66727 1.03481 6.66727C1.03189 6.66727 1.02899 6.66727 1.0261 6.66727C1.02322 6.66727 1.02036 6.66727 1.01752 6.66727C1.01468 6.66727 1.01185 6.66727 1.00905 6.66727C1.00625 6.66727 1.00347 6.66727 1.00071 6.66727L1.00071 8.66727C1.00347 8.66727 1.00625 8.66727 1.00905 8.66727C1.01185 8.66727 1.01468 8.66727 1.01752 8.66727C1.02036 8.66727 1.02322 8.66727 1.0261 8.66727C1.02899 8.66727 1.03189 8.66727 1.03481 8.66727C1.03773 8.66727 1.04068 8.66727 1.04364 8.66727C1.0466 8.66727 1.04958 8.66727 1.05259 8.66727C1.05559 8.66727 1.05861 8.66727 1.06165 8.66727C1.0647 8.66727 1.06776 8.66727 1.07084 8.66727C1.07393 8.66727 1.07703 8.66727 1.08015 8.66727C1.08328 8.66727 1.08642 8.66727 1.08958 8.66727C1.09275 8.66727 1.09593 8.66727 1.09914 8.66727C1.10234 8.66727 1.10556 8.66727 1.10881 8.66727C1.11205 8.66727 1.11532 8.66727 1.11861 8.66727C1.12189 8.66727 1.1252 8.66727 1.12852 8.66727C1.13185 8.66727 1.13519 8.66727 1.13856 8.66727C1.14193 8.66727 1.14531 8.66727 1.14872 8.66727C1.15213 8.66727 1.15556 8.66727 1.15901 8.66727C1.16245 8.66727 1.16592 8.66727 1.16941 8.66727C1.1729 8.66727 1.17641 8.66727 1.17994 8.66727C1.18347 8.66727 1.18702 8.66727 1.19059 8.66727C1.19416 8.66727 1.19775 8.66727 1.20136 8.66727C1.20497 8.66727 1.20861 8.66727 1.21226 8.66727C1.21591 8.66727 1.21959 8.66727 1.22328 8.66727C1.22697 8.66727 1.23069 8.66727 1.23442 8.66727C1.23816 8.66727 1.24191 8.66727 1.24569 8.66727C1.24946 8.66727 1.25326 8.66727 1.25708 8.66727C1.26089 8.66727 1.26473 8.66727 1.26859 8.66727C1.27245 8.66727 1.27633 8.66727 1.28023 8.66727C1.28413 8.66727 1.28805 8.66727 1.29199 8.66727C1.29593 8.66727 1.29989 8.66727 1.30387 8.66727C1.30786 8.66727 1.31186 8.66727 1.31588 8.66727C1.31991 8.66727 1.32395 8.66727 1.32802 8.66727C1.33209 8.66727 1.33617 8.66727 1.34028 8.66727C1.34439 8.66727 1.34851 8.66727 1.35266 8.66727C1.35681 8.66727 1.36098 8.66727 1.36517 8.66727C1.36936 8.66727 1.37357 8.66727 1.3778 8.66727C1.38204 8.66727 1.38629 8.66727 1.39056 8.66727C1.39484 8.66727 1.39913 8.66727 1.40345 8.66727C1.40776 8.66727 1.4121 8.66727 1.41646 8.66727C1.42081 8.66727 1.42519 8.66727 1.42959 8.66727C1.43399 8.66727 1.43841 8.66727 1.44285 8.66727C1.4473 8.66727 1.45176 8.66727 1.45624 8.66727C1.46072 8.66727 1.46523 8.66727 1.46975 8.66727C1.47428 8.66727 1.47883 8.66727 1.48339 8.66727C1.48796 8.66727 1.49255 8.66727 1.49716 8.66727C1.50177 8.66727 1.5064 8.66727 1.51105 8.66727C1.51571 8.66727 1.52038 8.66727 1.52507 8.66727C1.52977 8.66727 1.53448 8.66727 1.53922 8.66727C1.54396 8.66727 1.54871 8.66727 1.55349 8.66727C1.55827 8.66727 1.56307 8.66727 1.56789 8.66727C1.57271 8.66727 1.57756 8.66727 1.58242 8.66727C1.58728 8.66727 1.59217 8.66727 1.59708 8.66727C1.60198 8.66727 1.60691 8.66727 1.61186 8.66727C1.61681 8.66727 1.62178 8.66727 1.62677 8.66727C1.63176 8.66727 1.63678 8.66727 1.64181 8.66727C1.64684 8.66727 1.6519 8.66727 1.65698 8.66727C1.66205 8.66727 1.66715 8.66727 1.67227 8.66727C1.67739 8.66727 1.68253 8.66727 1.6877 8.66727C1.69286 8.66727 1.69804 8.66727 1.70325 8.66727C1.70845 8.66727 1.71368 8.66727 1.71893 8.66727C1.72418 8.66727 1.72945 8.66727 1.73474 8.66727C1.74003 8.66727 1.74534 8.66727 1.75068 8.66727C1.75601 8.66727 1.76137 8.66727 1.76675 8.66727C1.77212 8.66727 1.77752 8.66727 1.78294 8.66727C1.78836 8.66727 1.79381 8.66727 1.79927 8.66727C1.80473 8.66727 1.81022 8.66727 1.81573 8.66727C1.82123 8.66727 1.82676 8.66727 1.83231 8.66727C1.83786 8.66727 1.84344 8.66727 1.84903 8.66727C1.85462 8.66727 1.86024 8.66727 1.86587 8.66727C1.87151 8.66727 1.87717 8.66727 1.88285 8.66727C1.88853 8.66727 1.89423 8.66727 1.89996 8.66727C1.90568 8.66727 1.91143 8.66727 1.9172 8.66727C1.92296 8.66727 1.92875 8.66727 1.93456 8.66727C1.94038 8.66727 1.94621 8.66727 1.95206 8.66727C1.95792 8.66727 1.96379 8.66727 1.96969 8.66727C1.97559 8.66727 1.98151 8.66727 1.98745 8.66727C1.9934 8.66727 1.99936 8.66727 2.00535 8.66727C2.01133 8.66727 2.01734 8.66727 2.02337 8.66727C2.0294 8.66727 2.03545 8.66727 2.04153 8.66727C2.0476 8.66727 2.05369 8.66727 2.05981 8.66727C2.06593 8.66727 2.07207 8.66727 2.07823 8.66727C2.08439 8.66727 2.09058 8.66727 2.09678 8.66727C2.10299 8.66727 2.10922 8.66727 2.11547 8.66727C2.12172 8.66727 2.12799 8.66727 2.13428 8.66727C2.14058 8.66727 2.14689 8.66727 2.15323 8.66727C2.15957 8.66727 2.16593 8.66727 2.17231 8.66727C2.17869 8.66727 2.1851 8.66727 2.19152 8.66727C2.19795 8.66727 2.2044 8.66727 2.21087 8.66727C2.21734 8.66727 2.22384 8.66727 2.23035 8.66727C2.23687 8.66727 2.2434 8.66727 2.24996 8.66727C2.25652 8.66727 2.26311 8.66727 2.26971 8.66727C2.27631 8.66727 2.28294 8.66727 2.28959 8.66727C2.29624 8.66727 2.30291 8.66727 2.3096 8.66727C2.3163 8.66727 2.32301 8.66727 2.32975 8.66727C2.33649 8.66727 2.34325 8.66727 2.35003 8.66727C2.35682 8.66727 2.36362 8.66727 2.37045 8.66727C2.37728 8.66727 2.38413 8.66727 2.391 8.66727C2.39787 8.66727 2.40477 8.66727 2.41168 8.66727C2.4186 8.66727 2.42554 8.66727 2.4325 8.66727C2.43947 8.66727 2.44645 8.66727 2.45346 8.66727C2.46046 8.66727 2.46749 8.66727 2.47455 8.66727C2.4816 8.66727 2.48867 8.66727 2.49577 8.66727C2.50287 8.66727 2.50999 8.66727 2.51713 8.66727C2.52427 8.66727 2.53144 8.66727 2.53862 8.66727C2.54581 8.66727 2.55302 8.66727 2.56026 8.66727C2.56749 8.66727 2.57474 8.66727 2.58202 8.66727C2.5893 8.66727 2.5966 8.66727 2.60392 8.66727C2.61125 8.66727 2.61859 8.66727 2.62596 8.66727C2.63333 8.66727 2.64072 8.66727 2.64813 8.66727C2.65555 8.66727 2.66299 8.66727 2.67044 8.66727C2.6779 8.66727 2.68539 8.66727 2.69289 8.66727C2.7004 8.66727 2.70792 8.66727 2.71547 8.66727C2.72303 8.66727 2.7306 8.66727 2.73819 8.66727C2.74579 8.66727 2.75341 8.66727 2.76105 8.66727C2.76869 8.66727 2.77636 8.66727 2.78405 8.66727C2.79173 8.66727 2.79944 8.66727 2.80718 8.66727C2.81491 8.66727 2.82267 8.66727 2.83045 8.66727C2.83822 8.66727 2.84603 8.66727 2.85385 8.66727C2.86168 8.66727 2.86952 8.66727 2.8774 8.66727C2.88527 8.66727 2.89316 8.66727 2.90108 8.66727C2.90899 8.66727 2.91693 8.66727 2.9249 8.66727C2.93286 8.66727 2.94085 8.66727 2.94885 8.66727C2.95686 8.66727 2.9649 8.66727 2.97295 8.66727C2.98101 8.66727 2.98908 8.66727 2.99719 8.66727C3.00529 8.66727 3.01341 8.66727 3.02156 8.66727C3.02971 8.66727 3.03788 8.66727 3.04607 8.66727C3.05426 8.66727 3.06248 8.66727 3.07072 8.66727C3.07896 8.66727 3.08722 8.66727 3.09551 8.66727C3.1038 8.66727 3.11211 8.66727 3.12044 8.66727C3.12877 8.66727 3.13713 8.66727 3.14551 8.66727C3.15389 8.66727 3.16229 8.66727 3.17071 8.66727C3.17914 8.66727 3.18759 8.66727 3.19606 8.66727C3.20453 8.66727 3.21303 8.66727 3.22155 8.66727C3.23007 8.66727 3.23861 8.66727 3.24718 8.66727C3.25574 8.66727 3.26433 8.66727 3.27294 8.66727C3.28156 8.66727 3.29019 8.66727 3.29885 8.66727C3.30751 8.66727 3.31619 8.66727 3.3249 8.66727C3.3336 8.66727 3.34233 8.66727 3.35109 8.66727C3.35984 8.66727 3.36862 8.66727 3.37742 8.66727C3.38622 8.66727 3.39504 8.66727 3.40389 8.66727C3.41273 8.66727 3.4216 8.66727 3.4305 8.66727C3.43939 8.66727 3.44831 8.66727 3.45725 8.66727C3.46619 8.66727 3.47515 8.66727 3.48414 8.66727C3.49313 8.66727 3.50214 8.66727 3.51118 8.66727C3.52021 8.66727 3.52927 8.66727 3.53835 8.66727C3.54744 8.66727 3.55654 8.66727 3.56567 8.66727C3.5748 8.66727 3.58395 8.66727 3.59313 8.66727C3.60231 8.66727 3.61151 8.66727 3.62073 8.66727C3.62996 8.66727 3.63921 8.66727 3.64848 8.66727C3.65775 8.66727 3.66705 8.66727 3.67636 8.66727C3.68568 8.66727 3.69503 8.66727 3.70439 8.66727C3.71376 8.66727 3.72315 8.66727 3.73257 8.66727C3.74198 8.66727 3.75142 8.66727 3.76088 8.66727C3.77034 8.66727 3.77983 8.66727 3.78934 8.66727C3.79885 8.66727 3.80838 8.66727 3.81794 8.66727C3.8275 8.66727 3.83708 8.66727 3.84668 8.66727C3.85629 8.66727 3.86592 8.66727 3.87557 8.66727C3.88523 8.66727 3.8949 8.66727 3.9046 8.66727C3.9143 8.66727 3.92403 8.66727 3.93378 8.66727C3.94353 8.66727 3.9533 8.66727 3.9631 8.66727C3.97289 8.66727 3.98271 8.66727 3.99256 8.66727C4.0024 8.66727 4.01227 8.66727 4.02217 8.66727C4.03206 8.66727 4.04198 8.66727 4.05192 8.66727C4.06186 8.66727 4.07182 8.66727 4.08181 8.66727C4.0918 8.66727 4.10182 8.66727 4.11186 8.66727C4.12189 8.66727 4.13195 8.66727 4.14204 8.66727C4.15213 8.66727 4.16224 8.66727 4.17237 8.66727C4.1825 8.66727 4.19266 8.66727 4.20285 8.66727C4.21303 8.66727 4.22324 8.66727 4.23347 8.66727C4.2437 8.66727 4.25395 8.66727 4.26423 8.66727C4.27451 8.66727 4.28482 8.66727 4.29514 8.66727C4.30547 8.66727 4.31582 8.66727 4.3262 8.66727C4.33658 8.66727 4.34698 8.66727 4.3574 8.66727C4.36783 8.66727 4.37828 8.66727 4.38875 8.66727C4.39923 8.66727 4.40973 8.66727 4.42025 8.66727C4.43077 8.66727 4.44132 8.66727 4.45189 8.66727C4.46246 8.66727 4.47306 8.66727 4.48368 8.66727C4.4943 8.66727 4.50494 8.66727 4.51561 8.66727C4.52628 8.66727 4.53698 8.66727 4.5477 8.66727C4.55841 8.66727 4.56916 8.66727 4.57992 8.66727C4.59069 8.66727 4.60148 8.66727 4.6123 8.66727C4.62312 8.66727 4.63396 8.66727 4.64482 8.66727C4.65569 8.66727 4.66658 8.66727 4.67749 8.66727C4.68841 8.66727 4.69935 8.66727 4.71031 8.66727C4.72127 8.66727 4.73226 8.66727 4.74328 8.66727C4.75429 8.66727 4.76533 8.66727 4.77639 8.66727C4.78745 8.66727 4.79854 8.66727 4.80965 8.66727C4.82076 8.66727 4.8319 8.66727 4.84306 8.66727C4.85422 8.66727 4.86541 8.66727 4.87662 8.66727C4.88783 8.66727 4.89906 8.66727 4.91032 8.66727C4.92158 8.66727 4.93287 8.66727 4.94418 8.66727C4.95549 8.66727 4.96682 8.66727 4.97818 8.66727C4.98954 8.66727 5.00092 8.66727 5.01233 8.66727C5.02374 8.66727 5.03518 8.66727 5.04663 8.66727C5.05809 8.66727 5.06958 8.66727 5.08109 8.66727C5.09259 8.66727 5.10413 8.66727 5.11569 8.66727C5.12724 8.66727 5.13883 8.66727 5.15043 8.66727C5.16204 8.66727 5.17368 8.66727 5.18533 8.66727C5.19699 8.66727 5.20868 8.66727 5.22038 8.66727C5.23209 8.66727 5.24382 8.66727 5.25558 8.66727C5.26734 8.66727 5.27912 8.66727 5.29093 8.66727C5.30274 8.66727 5.31457 8.66727 5.32643 8.66727C5.33829 8.66727 5.35017 8.66727 5.36208 8.66727C5.37399 8.66727 5.38592 8.66727 5.39788 8.66727C5.40984 8.66727 5.42182 8.66727 5.43383 8.66727C5.44584 8.66727 5.45787 8.66727 5.46993 8.66727C5.48199 8.66727 5.49408 8.66727 5.50619 8.66727C5.5183 8.66727 5.53043 8.66727 5.54259 8.66727C5.55475 8.66727 5.56693 8.66727 5.57914 8.66727C5.59136 8.66727 5.60359 8.66727 5.61585 8.66727C5.62811 8.66727 5.6404 8.66727 5.65271 8.66727C5.66502 8.66727 5.67736 8.66727 5.68972 8.66727C5.70208 8.66727 5.71447 8.66727 5.72688 8.66727C5.7393 8.66727 5.75173 8.66727 5.7642 8.66727C5.77666 8.66727 5.78915 8.66727 5.80166 8.66727C5.81418 8.66727 5.82672 8.66727 5.83928 8.66727C5.85185 8.66727 5.86444 8.66727 5.87705 8.66727C5.88967 8.66727 5.90231 8.66727 5.91498 8.66727C5.92764 8.66727 5.94034 8.66727 5.95305 8.66727C5.96577 8.66727 5.97852 8.66727 5.99128 8.66727C6.00405 8.66727 6.01685 8.66727 6.02967 8.66727C6.04249 8.66727 6.05533 8.66727 6.0682 8.66727C6.08107 8.66727 6.09397 8.66727 6.10689 8.66727C6.11982 8.66727 6.13276 8.66727 6.14574 8.66727C6.15871 8.66727 6.17171 8.66727 6.18473 8.66727C6.19776 8.66727 6.21081 8.66727 6.22388 8.66727C6.23696 8.66727 6.25006 8.66727 6.26319 8.66727C6.27632 8.66727 6.28947 8.66727 6.30265 8.66727C6.31583 8.66727 6.32903 8.66727 6.34226 8.66727C6.35549 8.66727 6.36875 8.66727 6.38203 8.66727C6.39531 8.66727 6.40862 8.66727 6.42195 8.66727C6.43529 8.66727 6.44865 8.66727 6.46203 8.66727C6.47542 8.66727 6.48883 8.66727 6.50226 8.66727C6.5157 8.66727 6.52916 8.66727 6.54265 8.66727C6.55614 8.66727 6.56965 8.66727 6.58319 8.66727C6.59673 8.66727 6.6103 8.66727 6.62389 8.66727C6.63748 8.66727 6.6511 8.66727 6.66475 8.66727C6.67839 8.66727 6.69206 8.66727 6.70576 8.66727C6.71945 8.66727 6.73317 8.66727 6.74692 8.66727C6.76067 8.66727 6.77444 8.66727 6.78824 8.66727C6.80204 8.66727 6.81587 8.66727 6.82972 8.66727C6.84357 8.66727 6.85745 8.66727 6.87136 8.66727C6.88526 8.66727 6.89919 8.66727 6.91315 8.66727C6.9271 8.66727 6.94109 8.66727 6.95509 8.66727C6.9691 8.66727 6.98314 8.66727 6.9972 8.66727C7.01126 8.66727 7.02535 8.66727 7.03946 8.66727C7.05357 8.66727 7.06771 8.66727 7.08188 8.66727C7.09604 8.66727 7.11023 8.66727 7.12445 8.66727C7.13867 8.66727 7.15291 8.66727 7.16718 8.66727C7.18146 8.66727 7.19575 8.66727 7.21007 8.66727C7.2244 8.66727 7.23875 8.66727 7.25312 8.66727C7.2675 8.66727 7.2819 8.66727 7.29633 8.66727C7.31076 8.66727 7.32521 8.66727 7.33969 8.66727C7.35417 8.66727 7.36868 8.66727 7.38321 8.66727C7.39775 8.66727 7.41231 8.66727 7.42689 8.66727C7.44148 8.66727 7.45609 8.66727 7.47073 8.66727C7.48537 8.66727 7.50004 8.66727 7.51473 8.66727C7.52942 8.66727 7.54414 8.66727 7.55889 8.66727C7.57363 8.66727 7.5884 8.66727 7.6032 8.66727C7.618 8.66727 7.63282 8.66727 7.64768 8.66727C7.66253 8.66727 7.6774 8.66727 7.69231 8.66727C7.70721 8.66727 7.72214 8.66727 7.7371 8.66727C7.75206 8.66727 7.76704 8.66727 7.78205 8.66727C7.79706 8.66727 7.8121 8.66727 7.82717 8.66727C7.84223 8.66727 7.85732 8.66727 7.87244 8.66727C7.88755 8.66727 7.9027 8.66727 7.91787 8.66727C7.93304 8.66727 7.94824 8.66727 7.96346 8.66727C7.97868 8.66727 7.99393 8.66727 8.00921 8.66727C8.02449 8.66727 8.03979 8.66727 8.05512 8.66727C8.07045 8.66727 8.08581 8.66727 8.1012 8.66727C8.11658 8.66727 8.13199 8.66727 8.14743 8.66727C8.16287 8.66727 8.17833 8.66727 8.19383 8.66727C8.20932 8.66727 8.22484 8.66727 8.24038 8.66727C8.25593 8.66727 8.2715 8.66727 8.2871 8.66727C8.3027 8.66727 8.31832 8.66727 8.33398 8.66727C8.34963 8.66727 8.36531 8.66727 8.38102 8.66727C8.39672 8.66727 8.41246 8.66727 8.42822 8.66727C8.44398 8.66727 8.45977 8.66727 8.47558 8.66727C8.49139 8.66727 8.50724 8.66727 8.52311 8.66727C8.53897 8.66727 8.55487 8.66727 8.57079 8.66727C8.58671 8.66727 8.60266 8.66727 8.61864 8.66727C8.63462 8.66727 8.65062 8.66727 8.66665 8.66727C8.68268 8.66727 8.69874 8.66727 8.71483 8.66727C8.73091 8.66727 8.74703 8.66727 8.76317 8.66727C8.7793 8.66727 8.79547 8.66727 8.81166 8.66727C8.82786 8.66727 8.84408 8.66727 8.86033 8.66727C8.87658 8.66727 8.89285 8.66727 8.90915 8.66727C8.92546 8.66727 8.94179 8.66727 8.95814 8.66727C8.9745 8.66727 8.99088 8.66727 9.0073 8.66727C9.02371 8.66727 9.04015 8.66727 9.05661 8.66727C9.07308 8.66727 9.08957 8.66727 9.10609 8.66727C9.12261 8.66727 9.13916 8.66727 9.15574 8.66727C9.17231 8.66727 9.18891 8.66727 9.20555 8.66727C9.22217 8.66727 9.23883 8.66727 9.25552 8.66727C9.2722 8.66727 9.28891 8.66727 9.30565 8.66727C9.32239 8.66727 9.33916 8.66727 9.35596 8.66727C9.37275 8.66727 9.38957 8.66727 9.40642 8.66727C9.42327 8.66727 9.44015 8.66727 9.45705 8.66727C9.47396 8.66727 9.49089 8.66727 9.50785 8.66727C9.52481 8.66727 9.54179 8.66727 9.55881 8.66727C9.57582 8.66727 9.59287 8.66727 9.60994 8.66727C9.627 8.66727 9.6441 8.66727 9.66123 8.66727C9.67835 8.66727 9.6955 8.66727 9.71268 8.66727C9.72986 8.66727 9.74707 8.66727 9.76431 8.66727C9.78154 8.66727 9.79881 8.66727 9.8161 8.66727C9.83339 8.66727 9.8507 8.66727 9.86805 8.66727C9.8854 8.66727 9.90277 8.66727 9.92017 8.66727C9.93757 8.66727 9.955 8.66727 9.97246 8.66727C9.98992 8.66727 10.0074 8.66727 10.0249 8.66727C10.0424 8.66727 10.06 8.66727 10.0775 8.66727C10.0951 8.66727 10.1127 8.66727 10.1303 8.66727C10.1479 8.66727 10.1656 8.66727 10.1833 8.66727C10.201 8.66727 10.2187 8.66727 10.2364 8.66727C10.2541 8.66727 10.2719 8.66727 10.2897 8.66727C10.3075 8.66727 10.3253 8.66727 10.3431 8.66727C10.361 8.66727 10.3789 8.66727 10.3968 8.66727C10.4147 8.66727 10.4326 8.66727 10.4506 8.66727C10.4685 8.66727 10.4865 8.66727 10.5045 8.66727C10.5225 8.66727 10.5406 8.66727 10.5586 8.66727C10.5767 8.66727 10.5948 8.66727 10.6129 8.66727C10.6311 8.66727 10.6492 8.66727 10.6674 8.66727C10.6856 8.66727 10.7038 8.66727 10.722 8.66727C10.7403 8.66727 10.7585 8.66727 10.7768 8.66727C10.7951 8.66727 10.8135 8.66727 10.8318 8.66727C10.8502 8.66727 10.8685 8.66727 10.8869 8.66727C10.9054 8.66727 10.9238 8.66727 10.9423 8.66727C10.9607 8.66727 10.9792 8.66727 10.9977 8.66727C11.0162 8.66727 11.0348 8.66727 11.0534 8.66727C11.072 8.66727 11.0906 8.66727 11.1092 8.66727C11.1278 8.66727 11.1465 8.66727 11.1652 8.66727C11.1839 8.66727 11.2026 8.66727 11.2213 8.66727C11.2401 8.66727 11.2589 8.66727 11.2777 8.66727C11.2965 8.66727 11.3153 8.66727 11.3342 8.66727C11.353 8.66727 11.3719 8.66727 11.3908 8.66727C11.4097 8.66727 11.4287 8.66727 11.4477 8.66727C11.4666 8.66727 11.4856 8.66727 11.5047 8.66727C11.5237 8.66727 11.5427 8.66727 11.5618 8.66727C11.5809 8.66727 11.6 8.66727 11.6192 8.66727C11.6383 8.66727 11.6575 8.66727 11.6767 8.66727C11.6959 8.66727 11.7151 8.66727 11.7344 8.66727C11.7537 8.66727 11.7729 8.66727 11.7923 8.66727C11.8116 8.66727 11.8309 8.66727 11.8503 8.66727C11.8697 8.66727 11.8891 8.66727 11.9085 8.66727C11.9279 8.66727 11.9474 8.66727 11.9669 8.66727C11.9864 8.66727 12.0059 8.66727 12.0254 8.66727C12.045 8.66727 12.0645 8.66727 12.0841 8.66727C12.1037 8.66727 12.1234 8.66727 12.143 8.66727C12.1627 8.66727 12.1824 8.66727 12.2021 8.66727C12.2218 8.66727 12.2416 8.66727 12.2613 8.66727C12.2811 8.66727 12.3009 8.66727 12.3208 8.66727C12.3406 8.66727 12.3604 8.66727 12.3803 8.66727C12.4002 8.66727 12.4201 8.66727 12.4401 8.66727C12.46 8.66727 12.48 8.66727 12.5 8.66727C12.52 8.66727 12.5401 8.66727 12.5601 8.66727C12.5802 8.66727 12.6003 8.66727 12.6204 8.66727C12.6405 8.66727 12.6607 8.66727 12.6809 8.66727C12.701 8.66727 12.7212 8.66727 12.7415 8.66727C12.7617 8.66727 12.782 8.66727 12.8023 8.66727C12.8226 8.66727 12.8429 8.66727 12.8632 8.66727C12.8836 8.66727 12.904 8.66727 12.9244 8.66727C12.9448 8.66727 12.9652 8.66727 12.9857 8.66727C13.0062 8.66727 13.0267 8.66727 13.0472 8.66727C13.0677 8.66727 13.0883 8.66727 13.1089 8.66727C13.1295 8.66727 13.1501 8.66727 13.1707 8.66727C13.1914 8.66727 13.212 8.66727 13.2327 8.66727C13.2534 8.66727 13.2742 8.66727 13.2949 8.66727C13.3157 8.66727 13.3365 8.66727 13.3573 8.66727C13.3781 8.66727 13.399 8.66727 13.4199 8.66727C13.4407 8.66727 13.4616 8.66727 13.4826 8.66727C13.5035 8.66727 13.5245 8.66727 13.5455 8.66727C13.5665 8.66727 13.5875 8.66727 13.6085 8.66727C13.6296 8.66727 13.6507 8.66727 13.6718 8.66727C13.6929 8.66727 13.7141 8.66727 13.7352 8.66727C13.7564 8.66727 13.7776 8.66727 13.7988 8.66727C13.8201 8.66727 13.8413 8.66727 13.8626 8.66727C13.8839 8.66727 13.9052 8.66727 13.9266 8.66727C13.9479 8.66727 13.9693 8.66727 13.9907 8.66727C14.0121 8.66727 14.0335 8.66727 14.055 8.66727C14.0765 8.66727 14.098 8.66727 14.1195 8.66727C14.141 8.66727 14.1626 8.66727 14.1841 8.66727C14.2057 8.66727 14.2273 8.66727 14.249 8.66727C14.2706 8.66727 14.2923 8.66727 14.314 8.66727C14.3357 8.66727 14.3574 8.66727 14.3792 8.66727C14.401 8.66727 14.4228 8.66727 14.4446 8.66727C14.4664 8.66727 14.4882 8.66727 14.5101 8.66727C14.532 8.66727 14.5539 8.66727 14.5759 8.66727C14.5978 8.66727 14.6198 8.66727 14.6418 8.66727C14.6638 8.66727 14.6858 8.66727 14.7078 8.66727C14.7299 8.66727 14.752 8.66727 14.7741 8.66727C14.7962 8.66727 14.8184 8.66727 14.8406 8.66727C14.8627 8.66727 14.8849 8.66727 14.9072 8.66727C14.9294 8.66727 14.9517 8.66727 14.974 8.66727C14.9963 8.66727 15.0186 8.66727 15.041 8.66727C15.0633 8.66727 15.0857 8.66727 15.1081 8.66727C15.1305 8.66727 15.153 8.66727 15.1755 8.66727C15.1979 8.66727 15.2205 8.66727 15.243 8.66727C15.2655 8.66727 15.2881 8.66727 15.3107 8.66727C15.3333 8.66727 15.3559 8.66727 15.3786 8.66727C15.4012 8.66727 15.4239 8.66727 15.4466 8.66727C15.4693 8.66727 15.4921 8.66727 15.5149 8.66727C15.5376 8.66727 15.5605 8.66727 15.5833 8.66727C15.6061 8.66727 15.629 8.66727 15.6519 8.66727C15.6748 8.66727 15.6977 8.66727 15.7207 8.66727C15.7436 8.66727 15.7666 8.66727 15.7896 8.66727C15.8127 8.66727 15.8357 8.66727 15.8588 8.66727C15.8819 8.66727 15.905 8.66727 15.9281 8.66727C15.9512 8.66727 15.9744 8.66727 15.9976 8.66727C16.0208 8.66727 16.044 8.66727 16.0673 8.66727C16.0906 8.66727 16.1138 8.66727 16.1372 8.66727C16.1605 8.66727 16.1838 8.66727 16.2072 8.66727C16.2306 8.66727 16.254 8.66727 16.2775 8.66727C16.3009 8.66727 16.3244 8.66727 16.3479 8.66727C16.3714 8.66727 16.3949 8.66727 16.4185 8.66727C16.442 8.66727 16.4656 8.66727 16.4892 8.66727C16.5129 8.66727 16.5365 8.66727 16.5602 8.66727C16.5839 8.66727 16.6076 8.66727 16.6314 8.66727C16.6551 8.66727 16.6789 8.66727 16.7027 8.66727C16.7265 8.66727 16.7503 8.66727 16.7742 8.66727C16.7981 8.66727 16.822 8.66727 16.8459 8.66727C16.8698 8.66727 16.8938 8.66727 16.9178 8.66727C16.9418 8.66727 16.9658 8.66727 16.9898 8.66727C17.0139 8.66727 17.038 8.66727 17.0621 8.66727C17.0862 8.66727 17.1103 8.66727 17.1345 8.66727C17.1587 8.66727 17.1829 8.66727 17.2071 8.66727C17.2314 8.66727 17.2556 8.66727 17.2799 8.66727C17.3042 8.66727 17.3285 8.66727 17.3529 8.66727C17.3773 8.66727 17.4016 8.66727 17.4261 8.66727C17.4505 8.66727 17.4749 8.66727 17.4994 8.66727C17.5239 8.66727 17.5484 8.66727 17.5729 8.66727C17.5975 8.66727 17.6221 8.66727 17.6467 8.66727C17.6713 8.66727 17.6959 8.66727 17.7206 8.66727C17.7452 8.66727 17.7699 8.66727 17.7947 8.66727C17.8194 8.66727 17.8442 8.66727 17.8689 8.66727C17.8937 8.66727 17.9185 8.66727 17.9434 8.66727C17.9683 8.66727 17.9931 8.66727 18.018 8.66727C18.043 8.66727 18.0679 8.66727 18.0929 8.66727C18.1179 8.66727 18.1429 8.66727 18.1679 8.66727C18.1929 8.66727 18.218 8.66727 18.2431 8.66727C18.2682 8.66727 18.2933 8.66727 18.3185 8.66727C18.3437 8.66727 18.3688 8.66727 18.3941 8.66727C18.4193 8.66727 18.4445 8.66727 18.4698 8.66727C18.4951 8.66727 18.5204 8.66727 18.5458 8.66727C18.5711 8.66727 18.5965 8.66727 18.6219 8.66727C18.6473 8.66727 18.6728 8.66727 18.6982 8.66727C18.7237 8.66727 18.7492 8.66727 18.7748 8.66727C18.8003 8.66727 18.8259 8.66727 18.8515 8.66727C18.8771 8.66727 18.9027 8.66727 18.9283 8.66727C18.954 8.66727 18.9797 8.66727 19.0054 8.66727C19.0311 8.66727 19.0569 8.66727 19.0827 8.66727C19.1085 8.66727 19.1343 8.66727 19.1601 8.66727C19.186 8.66727 19.2118 8.66727 19.2378 8.66727C19.2637 8.66727 19.2896 8.66727 19.3156 8.66727C19.3416 8.66727 19.3676 8.66727 19.3936 8.66727C19.4196 8.66727 19.4457 8.66727 19.4718 8.66727C19.4979 8.66727 19.524 8.66727 19.5502 8.66727C19.5764 8.66727 19.6025 8.66727 19.6288 8.66727C19.655 8.66727 19.6813 8.66727 19.7075 8.66727C19.7338 8.66727 19.7601 8.66727 19.7865 8.66727C19.8128 8.66727 19.8392 8.66727 19.8656 8.66727C19.8921 8.66727 19.9185 8.66727 19.945 8.66727C19.9715 8.66727 19.998 8.66727 20.0245 8.66727C20.051 8.66727 20.0776 8.66727 20.1042 8.66727C20.1308 8.66727 20.1575 8.66727 20.1841 8.66727C20.2108 8.66727 20.2375 8.66727 20.2642 8.66727C20.291 8.66727 20.3177 8.66727 20.3445 8.66727C20.3713 8.66727 20.3981 8.66727 20.425 8.66727C20.4518 8.66727 20.4787 8.66727 20.5056 8.66727C20.5326 8.66727 20.5595 8.66727 20.5865 8.66727C20.6135 8.66727 20.6405 8.66727 20.6676 8.66727C20.6946 8.66727 20.7217 8.66727 20.7488 8.66727C20.7759 8.66727 20.803 8.66727 20.8302 8.66727C20.8574 8.66727 20.8846 8.66727 20.9118 8.66727C20.9391 8.66727 20.9664 8.66727 20.9937 8.66727C21.021 8.66727 21.0483 8.66727 21.0757 8.66727C21.103 8.66727 21.1304 8.66727 21.1579 8.66727C21.1853 8.66727 21.2127 8.66727 21.2402 8.66727C21.2677 8.66727 21.2953 8.66727 21.3228 8.66727C21.3504 8.66727 21.378 8.66727 21.4056 8.66727C21.4332 8.66727 21.4609 8.66727 21.4886 8.66727C21.5162 8.66727 21.544 8.66727 21.5717 8.66727C21.5995 8.66727 21.6272 8.66727 21.6551 8.66727C21.6829 8.66727 21.7107 8.66727 21.7386 8.66727C21.7665 8.66727 21.7944 8.66727 21.8223 8.66727C21.8503 8.66727 21.8783 8.66727 21.9063 8.66727C21.9343 8.66727 21.9623 8.66727 21.9904 8.66727C22.0185 8.66727 22.0466 8.66727 22.0747 8.66727C22.1028 8.66727 22.131 8.66727 22.1592 8.66727C22.1874 8.66727 22.2156 8.66727 22.2439 8.66727C22.2722 8.66727 22.3005 8.66727 22.3288 8.66727C22.3571 8.66727 22.3855 8.66727 22.4139 8.66727C22.4423 8.66727 22.4707 8.66727 22.4992 8.66727C22.5276 8.66727 22.5561 8.66727 22.5847 8.66727C22.6132 8.66727 22.6417 8.66727 22.6703 8.66727C22.6989 8.66727 22.7275 8.66727 22.7562 8.66727C22.7848 8.66727 22.8135 8.66727 22.8423 8.66727C22.871 8.66727 22.8997 8.66727 22.9285 8.66727C22.9573 8.66727 22.9861 8.66727 23.015 8.66727C23.0438 8.66727 23.0727 8.66727 23.1016 8.66727C23.1305 8.66727 23.1595 8.66727 23.1884 8.66727C23.2174 8.66727 23.2464 8.66727 23.2755 8.66727C23.3045 8.66727 23.3336 8.66727 23.3627 8.66727C23.3918 8.66727 23.421 8.66727 23.4501 8.66727C23.4793 8.66727 23.5085 8.66727 23.5378 8.66727C23.567 8.66727 23.5963 8.66727 23.6256 8.66727C23.6549 8.66727 23.6842 8.66727 23.7136 8.66727C23.743 8.66727 23.7724 8.66727 23.8018 8.66727C23.8313 8.66727 23.8607 8.66727 23.8902 8.66727C23.9197 8.66727 23.9493 8.66727 23.9788 8.66727C24.0084 8.66727 24.038 8.66727 24.0676 8.66727C24.0973 8.66727 24.1269 8.66727 24.1566 8.66727C24.1863 8.66727 24.2161 8.66727 24.2458 8.66727C24.2756 8.66727 24.3054 8.66727 24.3352 8.66727L24.3352 6.66727Z" fill="black"/>
</svg>
