<svg width="25" height="16" viewBox="0 0 25 16" fill="none" xmlns="http://www.w3.org/2000/svg">
<path d="M24.0414 8.37437C24.4319 7.98384 24.4319 7.35068 24.0414 6.96015L17.6774 0.596194C17.2869 0.20567 16.6537 0.20567 16.2632 0.596194C15.8727 0.986718 15.8727 1.61988 16.2632 2.01041L21.92 7.66726L16.2632 13.3241C15.8727 13.7146 15.8727 14.3478 16.2632 14.7383C16.6537 15.1289 17.2869 15.1289 17.6774 14.7383L24.0414 8.37437ZM-0.00027005 8.66726C0.0295621 8.66726 0.0593603 8.66726 0.0891245 8.66726C0.11889 8.66726 0.148623 8.66726 0.178322 8.66726C0.208022 8.66726 0.237688 8.66726 0.267322 8.66726C0.296956 8.66726 0.326557 8.66726 0.356126 8.66726C0.385694 8.66726 0.415229 8.66726 0.444732 8.66726C0.474234 8.66726 0.503704 8.66726 0.53314 8.66726C0.562579 8.66726 0.591983 8.66726 0.621354 8.66726C0.650725 8.66726 0.680064 8.66726 0.709371 8.66726C0.738677 8.66726 0.767951 8.66726 0.797191 8.66726C0.826431 8.66726 0.85564 8.66726 0.884816 8.66726C0.913991 8.66726 0.943134 8.66726 0.972244 8.66726C1.00135 8.66726 1.03043 8.66726 1.05948 8.66726C1.08852 8.66726 1.11753 8.66726 1.14651 8.66726C1.17549 8.66726 1.20444 8.66726 1.23335 8.66726C1.26227 8.66726 1.29115 8.66726 1.32 8.66726C1.34885 8.66726 1.37767 8.66726 1.40645 8.66726C1.43524 8.66726 1.46399 8.66726 1.49271 8.66726C1.52143 8.66726 1.55011 8.66726 1.57877 8.66726C1.60742 8.66726 1.63605 8.66726 1.66464 8.66726C1.69322 8.66726 1.72178 8.66726 1.75031 8.66726C1.77883 8.66726 1.80732 8.66726 1.83578 8.66726C1.86424 8.66726 1.89267 8.66726 1.92107 8.66726C1.94946 8.66726 1.97783 8.66726 2.00616 8.66726C2.03449 8.66726 2.06279 8.66726 2.09105 8.66726C2.11932 8.66726 2.14755 8.66726 2.17575 8.66726C2.20395 8.66726 2.23212 8.66726 2.26026 8.66726C2.2884 8.66726 2.3165 8.66726 2.34457 8.66726C2.37265 8.66726 2.40069 8.66726 2.42869 8.66726C2.4567 8.66726 2.48468 8.66726 2.51262 8.66726C2.54057 8.66726 2.56848 8.66726 2.59636 8.66726C2.62424 8.66726 2.65208 8.66726 2.6799 8.66726C2.70771 8.66726 2.7355 8.66726 2.76325 8.66726C2.791 8.66726 2.81872 8.66726 2.8464 8.66726C2.87409 8.66726 2.90175 8.66726 2.92937 8.66726C2.95699 8.66726 2.98458 8.66726 3.01214 8.66726C3.0397 8.66726 3.06722 8.66726 3.09472 8.66726C3.12221 8.66726 3.14968 8.66726 3.17711 8.66726C3.20454 8.66726 3.23193 8.66726 3.2593 8.66726C3.28667 8.66726 3.314 8.66726 3.34131 8.66726C3.36861 8.66726 3.39588 8.66726 3.42312 8.66726C3.45036 8.66726 3.47756 8.66726 3.50474 8.66726C3.53191 8.66726 3.55906 8.66726 3.58617 8.66726C3.61328 8.66726 3.64036 8.66726 3.66741 8.66726C3.69445 8.66726 3.72147 8.66726 3.74845 8.66726C3.77544 8.66726 3.80239 8.66726 3.82931 8.66726C3.85623 8.66726 3.88312 8.66726 3.90998 8.66726C3.93683 8.66726 3.96366 8.66726 3.99045 8.66726C4.01725 8.66726 4.04401 8.66726 4.07074 8.66726C4.09747 8.66726 4.12417 8.66726 4.15083 8.66726C4.1775 8.66726 4.20414 8.66726 4.23074 8.66726C4.25734 8.66726 4.28392 8.66726 4.31046 8.66726C4.337 8.66726 4.3635 8.66726 4.38998 8.66726C4.41646 8.66726 4.4429 8.66726 4.46932 8.66726C4.49573 8.66726 4.52211 8.66726 4.54846 8.66726C4.57481 8.66726 4.60113 8.66726 4.62742 8.66726C4.65371 8.66726 4.67996 8.66726 4.70619 8.66726C4.73241 8.66726 4.75861 8.66726 4.78477 8.66726C4.81093 8.66726 4.83706 8.66726 4.86316 8.66726C4.88926 8.66726 4.91533 8.66726 4.94136 8.66726C4.9674 8.66726 4.9934 8.66726 5.01938 8.66726C5.04535 8.66726 5.07129 8.66726 5.0972 8.66726C5.12311 8.66726 5.14899 8.66726 5.17484 8.66726C5.20069 8.66726 5.2265 8.66726 5.25229 8.66726C5.27807 8.66726 5.30383 8.66726 5.32955 8.66726C5.35527 8.66726 5.38096 8.66726 5.40662 8.66726C5.43228 8.66726 5.45791 8.66726 5.48351 8.66726C5.5091 8.66726 5.53467 8.66726 5.56021 8.66726C5.58574 8.66726 5.61124 8.66726 5.63672 8.66726C5.66219 8.66726 5.68763 8.66726 5.71304 8.66726C5.73845 8.66726 5.76383 8.66726 5.78918 8.66726C5.81452 8.66726 5.83984 8.66726 5.86513 8.66726C5.89041 8.66726 5.91567 8.66726 5.94089 8.66726C5.96611 8.66726 5.99131 8.66726 6.01647 8.66726C6.04163 8.66726 6.06676 8.66726 6.09186 8.66726C6.11696 8.66726 6.14202 8.66726 6.16706 8.66726C6.1921 8.66726 6.21711 8.66726 6.24208 8.66726C6.26706 8.66726 6.292 8.66726 6.31691 8.66726C6.34183 8.66726 6.36671 8.66726 6.39156 8.66726C6.41641 8.66726 6.44123 8.66726 6.46602 8.66726C6.49081 8.66726 6.51557 8.66726 6.5403 8.66726C6.56502 8.66726 6.58972 8.66726 6.61439 8.66726C6.63905 8.66726 6.66369 8.66726 6.68829 8.66726C6.71289 8.66726 6.73747 8.66726 6.76201 8.66726C6.78655 8.66726 6.81106 8.66726 6.83555 8.66726C6.86003 8.66726 6.88448 8.66726 6.9089 8.66726C6.93332 8.66726 6.9577 8.66726 6.98206 8.66726C7.00642 8.66726 7.03075 8.66726 7.05504 8.66726C7.07934 8.66726 7.10361 8.66726 7.12784 8.66726C7.15208 8.66726 7.17628 8.66726 7.20045 8.66726C7.22463 8.66726 7.24877 8.66726 7.27288 8.66726C7.297 8.66726 7.32108 8.66726 7.34513 8.66726C7.36918 8.66726 7.3932 8.66726 7.41719 8.66726C7.44118 8.66726 7.46514 8.66726 7.48907 8.66726C7.513 8.66726 7.5369 8.66726 7.56076 8.66726C7.58463 8.66726 7.60847 8.66726 7.63228 8.66726C7.65608 8.66726 7.67986 8.66726 7.7036 8.66726C7.72735 8.66726 7.75106 8.66726 7.77475 8.66726C7.79843 8.66726 7.82209 8.66726 7.84571 8.66726C7.86934 8.66726 7.89293 8.66726 7.91649 8.66726C7.94006 8.66726 7.96359 8.66726 7.98709 8.66726C8.01059 8.66726 8.03407 8.66726 8.05751 8.66726C8.08095 8.66726 8.10436 8.66726 8.12774 8.66726C8.15112 8.66726 8.17447 8.66726 8.19779 8.66726C8.22111 8.66726 8.2444 8.66726 8.26766 8.66726C8.29092 8.66726 8.31415 8.66726 8.33735 8.66726C8.36055 8.66726 8.38372 8.66726 8.40686 8.66726C8.43 8.66726 8.4531 8.66726 8.47618 8.66726C8.49926 8.66726 8.52231 8.66726 8.54533 8.66726C8.56834 8.66726 8.59133 8.66726 8.61429 8.66726C8.63725 8.66726 8.66017 8.66726 8.68307 8.66726C8.70597 8.66726 8.72884 8.66726 8.75167 8.66726C8.77451 8.66726 8.79732 8.66726 8.82009 8.66726C8.84287 8.66726 8.86562 8.66726 8.88833 8.66726C8.91105 8.66726 8.93374 8.66726 8.95639 8.66726C8.97905 8.66726 9.00168 8.66726 9.02427 8.66726C9.04687 8.66726 9.06944 8.66726 9.09197 8.66726C9.11451 8.66726 9.13702 8.66726 9.15949 8.66726C9.18197 8.66726 9.20442 8.66726 9.22683 8.66726C9.24925 8.66726 9.27164 8.66726 9.29399 8.66726C9.31635 8.66726 9.33868 8.66726 9.36098 8.66726C9.38327 8.66726 9.40554 8.66726 9.42778 8.66726C9.45002 8.66726 9.47222 8.66726 9.4944 8.66726C9.51658 8.66726 9.53873 8.66726 9.56085 8.66726C9.58296 8.66726 9.60505 8.66726 9.62711 8.66726C9.64917 8.66726 9.6712 8.66726 9.6932 8.66726C9.7152 8.66726 9.73717 8.66726 9.75911 8.66726C9.78104 8.66726 9.80295 8.66726 9.82484 8.66726C9.84672 8.66726 9.86857 8.66726 9.89039 8.66726C9.91221 8.66726 9.934 8.66726 9.95576 8.66726C9.97752 8.66726 9.99925 8.66726 10.021 8.66726C10.0427 8.66726 10.0643 8.66726 10.086 8.66726C10.1076 8.66726 10.1292 8.66726 10.1508 8.66726C10.1724 8.66726 10.194 8.66726 10.2155 8.66726C10.237 8.66726 10.2585 8.66726 10.28 8.66726C10.3014 8.66726 10.3229 8.66726 10.3443 8.66726C10.3657 8.66726 10.3871 8.66726 10.4084 8.66726C10.4298 8.66726 10.4511 8.66726 10.4724 8.66726C10.4936 8.66726 10.5149 8.66726 10.5361 8.66726C10.5574 8.66726 10.5786 8.66726 10.5997 8.66726C10.6209 8.66726 10.6421 8.66726 10.6632 8.66726C10.6843 8.66726 10.7054 8.66726 10.7264 8.66726C10.7475 8.66726 10.7685 8.66726 10.7895 8.66726C10.8105 8.66726 10.8314 8.66726 10.8524 8.66726C10.8733 8.66726 10.8942 8.66726 10.9151 8.66726C10.936 8.66726 10.9568 8.66726 10.9777 8.66726C10.9985 8.66726 11.0193 8.66726 11.04 8.66726C11.0608 8.66726 11.0815 8.66726 11.1022 8.66726C11.1229 8.66726 11.1436 8.66726 11.1642 8.66726C11.1849 8.66726 11.2055 8.66726 11.2261 8.66726C11.2467 8.66726 11.2672 8.66726 11.2878 8.66726C11.3083 8.66726 11.3288 8.66726 11.3492 8.66726C11.3697 8.66726 11.3902 8.66726 11.4106 8.66726C11.431 8.66726 11.4514 8.66726 11.4717 8.66726C11.4921 8.66726 11.5124 8.66726 11.5327 8.66726C11.553 8.66726 11.5732 8.66726 11.5935 8.66726C11.6137 8.66726 11.6339 8.66726 11.6541 8.66726C11.6743 8.66726 11.6944 8.66726 11.7146 8.66726C11.7347 8.66726 11.7548 8.66726 11.7748 8.66726C11.7949 8.66726 11.8149 8.66726 11.8349 8.66726C11.8549 8.66726 11.8749 8.66726 11.8949 8.66726C11.9148 8.66726 11.9347 8.66726 11.9546 8.66726C11.9745 8.66726 11.9944 8.66726 12.0142 8.66726C12.034 8.66726 12.0538 8.66726 12.0736 8.66726C12.0934 8.66726 12.1131 8.66726 12.1329 8.66726C12.1526 8.66726 12.1723 8.66726 12.1919 8.66726C12.2116 8.66726 12.2312 8.66726 12.2508 8.66726C12.2704 8.66726 12.29 8.66726 12.3095 8.66726C12.3291 8.66726 12.3486 8.66726 12.3681 8.66726C12.3876 8.66726 12.407 8.66726 12.4265 8.66726C12.4459 8.66726 12.4653 8.66726 12.4847 8.66726C12.504 8.66726 12.5234 8.66726 12.5427 8.66726C12.562 8.66726 12.5813 8.66726 12.6006 8.66726C12.6198 8.66726 12.6391 8.66726 12.6583 8.66726C12.6775 8.66726 12.6966 8.66726 12.7158 8.66726C12.7349 8.66726 12.754 8.66726 12.7731 8.66726C12.7922 8.66726 12.8113 8.66726 12.8303 8.66726C12.8493 8.66726 12.8683 8.66726 12.8873 8.66726C12.9063 8.66726 12.9252 8.66726 12.9441 8.66726C12.9631 8.66726 12.9819 8.66726 13.0008 8.66726C13.0197 8.66726 13.0385 8.66726 13.0573 8.66726C13.0761 8.66726 13.0949 8.66726 13.1136 8.66726C13.1324 8.66726 13.1511 8.66726 13.1698 8.66726C13.1885 8.66726 13.2071 8.66726 13.2258 8.66726C13.2444 8.66726 13.263 8.66726 13.2816 8.66726C13.3002 8.66726 13.3187 8.66726 13.3372 8.66726C13.3558 8.66726 13.3742 8.66726 13.3927 8.66726C13.4112 8.66726 13.4296 8.66726 13.448 8.66726C13.4664 8.66726 13.4848 8.66726 13.5032 8.66726C13.5215 8.66726 13.5398 8.66726 13.5581 8.66726C13.5764 8.66726 13.5947 8.66726 13.6129 8.66726C13.6312 8.66726 13.6494 8.66726 13.6676 8.66726C13.6857 8.66726 13.7039 8.66726 13.722 8.66726C13.7401 8.66726 13.7582 8.66726 13.7763 8.66726C13.7944 8.66726 13.8124 8.66726 13.8304 8.66726C13.8485 8.66726 13.8664 8.66726 13.8844 8.66726C13.9024 8.66726 13.9203 8.66726 13.9382 8.66726C13.9561 8.66726 13.974 8.66726 13.9918 8.66726C14.0097 8.66726 14.0275 8.66726 14.0453 8.66726C14.0631 8.66726 14.0808 8.66726 14.0986 8.66726C14.1163 8.66726 14.134 8.66726 14.1517 8.66726C14.1694 8.66726 14.187 8.66726 14.2046 8.66726C14.2223 8.66726 14.2399 8.66726 14.2574 8.66726C14.275 8.66726 14.2925 8.66726 14.31 8.66726C14.3276 8.66726 14.345 8.66726 14.3625 8.66726C14.38 8.66726 14.3974 8.66726 14.4148 8.66726C14.4322 8.66726 14.4496 8.66726 14.4669 8.66726C14.4843 8.66726 14.5016 8.66726 14.5189 8.66726C14.5362 8.66726 14.5534 8.66726 14.5707 8.66726C14.5879 8.66726 14.6051 8.66726 14.6223 8.66726C14.6395 8.66726 14.6566 8.66726 14.6737 8.66726C14.6909 8.66726 14.708 8.66726 14.725 8.66726C14.7421 8.66726 14.7591 8.66726 14.7762 8.66726C14.7932 8.66726 14.8102 8.66726 14.8271 8.66726C14.8441 8.66726 14.861 8.66726 14.8779 8.66726C14.8948 8.66726 14.9117 8.66726 14.9285 8.66726C14.9454 8.66726 14.9622 8.66726 14.979 8.66726C14.9958 8.66726 15.0126 8.66726 15.0293 8.66726C15.046 8.66726 15.0628 8.66726 15.0794 8.66726C15.0961 8.66726 15.1128 8.66726 15.1294 8.66726C15.146 8.66726 15.1626 8.66726 15.1792 8.66726C15.1958 8.66726 15.2123 8.66726 15.2289 8.66726C15.2454 8.66726 15.2619 8.66726 15.2783 8.66726C15.2948 8.66726 15.3113 8.66726 15.3277 8.66726C15.3441 8.66726 15.3605 8.66726 15.3768 8.66726C15.3932 8.66726 15.4095 8.66726 15.4258 8.66726C15.4421 8.66726 15.4584 8.66726 15.4746 8.66726C15.4909 8.66726 15.5071 8.66726 15.5233 8.66726C15.5395 8.66726 15.5557 8.66726 15.5718 8.66726C15.5879 8.66726 15.604 8.66726 15.6201 8.66726C15.6362 8.66726 15.6523 8.66726 15.6683 8.66726C15.6843 8.66726 15.7003 8.66726 15.7163 8.66726C15.7323 8.66726 15.7482 8.66726 15.7642 8.66726C15.7801 8.66726 15.796 8.66726 15.8119 8.66726C15.8277 8.66726 15.8436 8.66726 15.8594 8.66726C15.8752 8.66726 15.891 8.66726 15.9067 8.66726C15.9225 8.66726 15.9382 8.66726 15.9539 8.66726C15.9697 8.66726 15.9853 8.66726 16.001 8.66726C16.0166 8.66726 16.0323 8.66726 16.0479 8.66726C16.0635 8.66726 16.079 8.66726 16.0946 8.66726C16.1101 8.66726 16.1256 8.66726 16.1411 8.66726C16.1566 8.66726 16.1721 8.66726 16.1875 8.66726C16.203 8.66726 16.2184 8.66726 16.2338 8.66726C16.2491 8.66726 16.2645 8.66726 16.2798 8.66726C16.2952 8.66726 16.3105 8.66726 16.3257 8.66726C16.341 8.66726 16.3563 8.66726 16.3715 8.66726C16.3867 8.66726 16.4019 8.66726 16.4171 8.66726C16.4323 8.66726 16.4474 8.66726 16.4625 8.66726C16.4776 8.66726 16.4927 8.66726 16.5078 8.66726C16.5229 8.66726 16.5379 8.66726 16.5529 8.66726C16.5679 8.66726 16.5829 8.66726 16.5979 8.66726C16.6128 8.66726 16.6277 8.66726 16.6427 8.66726C16.6576 8.66726 16.6724 8.66726 16.6873 8.66726C16.7021 8.66726 16.717 8.66726 16.7318 8.66726C16.7466 8.66726 16.7613 8.66726 16.7761 8.66726C16.7908 8.66726 16.8055 8.66726 16.8202 8.66726C16.8349 8.66726 16.8496 8.66726 16.8642 8.66726C16.8789 8.66726 16.8935 8.66726 16.9081 8.66726C16.9227 8.66726 16.9372 8.66726 16.9517 8.66726C16.9663 8.66726 16.9808 8.66726 16.9953 8.66726C17.0097 8.66726 17.0242 8.66726 17.0386 8.66726C17.0531 8.66726 17.0675 8.66726 17.0818 8.66726C17.0962 8.66726 17.1106 8.66726 17.1249 8.66726C17.1392 8.66726 17.1535 8.66726 17.1678 8.66726C17.182 8.66726 17.1963 8.66726 17.2105 8.66726C17.2247 8.66726 17.2389 8.66726 17.2531 8.66726C17.2672 8.66726 17.2814 8.66726 17.2955 8.66726C17.3096 8.66726 17.3237 8.66726 17.3378 8.66726C17.3518 8.66726 17.3659 8.66726 17.3799 8.66726C17.3939 8.66726 17.4079 8.66726 17.4218 8.66726C17.4358 8.66726 17.4497 8.66726 17.4636 8.66726C17.4775 8.66726 17.4914 8.66726 17.5052 8.66726C17.5191 8.66726 17.5329 8.66726 17.5467 8.66726C17.5605 8.66726 17.5743 8.66726 17.588 8.66726C17.6018 8.66726 17.6155 8.66726 17.6292 8.66726C17.6429 8.66726 17.6566 8.66726 17.6702 8.66726C17.6839 8.66726 17.6975 8.66726 17.7111 8.66726C17.7247 8.66726 17.7382 8.66726 17.7518 8.66726C17.7653 8.66726 17.7788 8.66726 17.7923 8.66726C17.8058 8.66726 17.8193 8.66726 17.8327 8.66726C17.8461 8.66726 17.8595 8.66726 17.8729 8.66726C17.8863 8.66726 17.8997 8.66726 17.913 8.66726C17.9263 8.66726 17.9396 8.66726 17.9529 8.66726C17.9662 8.66726 17.9795 8.66726 17.9927 8.66726C18.0059 8.66726 18.0191 8.66726 18.0323 8.66726C18.0455 8.66726 18.0586 8.66726 18.0718 8.66726C18.0849 8.66726 18.098 8.66726 18.1111 8.66726C18.1242 8.66726 18.1372 8.66726 18.1502 8.66726C18.1633 8.66726 18.1762 8.66726 18.1892 8.66726C18.2022 8.66726 18.2151 8.66726 18.2281 8.66726C18.241 8.66726 18.2539 8.66726 18.2668 8.66726C18.2796 8.66726 18.2925 8.66726 18.3053 8.66726C18.3181 8.66726 18.3309 8.66726 18.3437 8.66726C18.3564 8.66726 18.3692 8.66726 18.3819 8.66726C18.3946 8.66726 18.4073 8.66726 18.42 8.66726C18.4326 8.66726 18.4453 8.66726 18.4579 8.66726C18.4705 8.66726 18.4831 8.66726 18.4957 8.66726C18.5082 8.66726 18.5208 8.66726 18.5333 8.66726C18.5458 8.66726 18.5583 8.66726 18.5708 8.66726C18.5832 8.66726 18.5957 8.66726 18.6081 8.66726C18.6205 8.66726 18.6329 8.66726 18.6452 8.66726C18.6576 8.66726 18.6699 8.66726 18.6823 8.66726C18.6946 8.66726 18.7068 8.66726 18.7191 8.66726C18.7314 8.66726 18.7436 8.66726 18.7558 8.66726C18.768 8.66726 18.7802 8.66726 18.7924 8.66726C18.8045 8.66726 18.8167 8.66726 18.8288 8.66726C18.8409 8.66726 18.853 8.66726 18.865 8.66726C18.8771 8.66726 18.8891 8.66726 18.9011 8.66726C18.9131 8.66726 18.9251 8.66726 18.9371 8.66726C18.949 8.66726 18.961 8.66726 18.9729 8.66726C18.9848 8.66726 18.9967 8.66726 19.0085 8.66726C19.0204 8.66726 19.0322 8.66726 19.044 8.66726C19.0558 8.66726 19.0676 8.66726 19.0794 8.66726C19.0911 8.66726 19.1029 8.66726 19.1146 8.66726C19.1263 8.66726 19.138 8.66726 19.1496 8.66726C19.1613 8.66726 19.1729 8.66726 19.1845 8.66726C19.1961 8.66726 19.2077 8.66726 19.2193 8.66726C19.2308 8.66726 19.2424 8.66726 19.2539 8.66726C19.2654 8.66726 19.2769 8.66726 19.2883 8.66726C19.2998 8.66726 19.3112 8.66726 19.3226 8.66726C19.334 8.66726 19.3454 8.66726 19.3568 8.66726C19.3681 8.66726 19.3795 8.66726 19.3908 8.66726C19.4021 8.66726 19.4134 8.66726 19.4246 8.66726C19.4359 8.66726 19.4471 8.66726 19.4583 8.66726C19.4696 8.66726 19.4807 8.66726 19.4919 8.66726C19.5031 8.66726 19.5142 8.66726 19.5253 8.66726C19.5364 8.66726 19.5475 8.66726 19.5586 8.66726C19.5696 8.66726 19.5807 8.66726 19.5917 8.66726C19.6027 8.66726 19.6137 8.66726 19.6246 8.66726C19.6356 8.66726 19.6466 8.66726 19.6575 8.66726C19.6684 8.66726 19.6793 8.66726 19.6901 8.66726C19.701 8.66726 19.7118 8.66726 19.7227 8.66726C19.7335 8.66726 19.7443 8.66726 19.755 8.66726C19.7658 8.66726 19.7765 8.66726 19.7873 8.66726C19.798 8.66726 19.8087 8.66726 19.8193 8.66726C19.83 8.66726 19.8407 8.66726 19.8513 8.66726C19.8619 8.66726 19.8725 8.66726 19.8831 8.66726C19.8936 8.66726 19.9042 8.66726 19.9147 8.66726C19.9252 8.66726 19.9357 8.66726 19.9462 8.66726C19.9567 8.66726 19.9671 8.66726 19.9776 8.66726C19.988 8.66726 19.9984 8.66726 20.0088 8.66726C20.0191 8.66726 20.0295 8.66726 20.0398 8.66726C20.0501 8.66726 20.0604 8.66726 20.0707 8.66726C20.081 8.66726 20.0913 8.66726 20.1015 8.66726C20.1117 8.66726 20.1219 8.66726 20.1321 8.66726C20.1423 8.66726 20.1525 8.66726 20.1626 8.66726C20.1727 8.66726 20.1828 8.66726 20.1929 8.66726C20.203 8.66726 20.2131 8.66726 20.2231 8.66726C20.2331 8.66726 20.2432 8.66726 20.2531 8.66726C20.2631 8.66726 20.2731 8.66726 20.283 8.66726C20.293 8.66726 20.3029 8.66726 20.3128 8.66726C20.3227 8.66726 20.3326 8.66726 20.3424 8.66726C20.3522 8.66726 20.3621 8.66726 20.3719 8.66726C20.3817 8.66726 20.3914 8.66726 20.4012 8.66726C20.4109 8.66726 20.4207 8.66726 20.4304 8.66726C20.4401 8.66726 20.4497 8.66726 20.4594 8.66726C20.469 8.66726 20.4787 8.66726 20.4883 8.66726C20.4979 8.66726 20.5075 8.66726 20.517 8.66726C20.5266 8.66726 20.5361 8.66726 20.5456 8.66726C20.5551 8.66726 20.5646 8.66726 20.5741 8.66726C20.5835 8.66726 20.593 8.66726 20.6024 8.66726C20.6118 8.66726 20.6212 8.66726 20.6306 8.66726C20.6399 8.66726 20.6493 8.66726 20.6586 8.66726C20.6679 8.66726 20.6772 8.66726 20.6865 8.66726C20.6958 8.66726 20.705 8.66726 20.7142 8.66726C20.7235 8.66726 20.7327 8.66726 20.7418 8.66726C20.751 8.66726 20.7602 8.66726 20.7693 8.66726C20.7784 8.66726 20.7875 8.66726 20.7966 8.66726C20.8057 8.66726 20.8147 8.66726 20.8238 8.66726C20.8328 8.66726 20.8418 8.66726 20.8508 8.66726C20.8598 8.66726 20.8688 8.66726 20.8777 8.66726C20.8867 8.66726 20.8956 8.66726 20.9045 8.66726C20.9134 8.66726 20.9222 8.66726 20.9311 8.66726C20.9399 8.66726 20.9487 8.66726 20.9575 8.66726C20.9663 8.66726 20.9751 8.66726 20.9839 8.66726C20.9926 8.66726 21.0014 8.66726 21.0101 8.66726C21.0188 8.66726 21.0275 8.66726 21.0361 8.66726C21.0448 8.66726 21.0534 8.66726 21.062 8.66726C21.0706 8.66726 21.0792 8.66726 21.0878 8.66726C21.0963 8.66726 21.1049 8.66726 21.1134 8.66726C21.1219 8.66726 21.1304 8.66726 21.1389 8.66726C21.1474 8.66726 21.1558 8.66726 21.1642 8.66726C21.1727 8.66726 21.1811 8.66726 21.1895 8.66726C21.1978 8.66726 21.2062 8.66726 21.2145 8.66726C21.2229 8.66726 21.2312 8.66726 21.2395 8.66726C21.2477 8.66726 21.256 8.66726 21.2642 8.66726C21.2725 8.66726 21.2807 8.66726 21.2889 8.66726C21.2971 8.66726 21.3053 8.66726 21.3134 8.66726C21.3215 8.66726 21.3297 8.66726 21.3378 8.66726C21.3459 8.66726 21.354 8.66726 21.362 8.66726C21.3701 8.66726 21.3781 8.66726 21.3861 8.66726C21.3941 8.66726 21.4021 8.66726 21.4101 8.66726C21.418 8.66726 21.426 8.66726 21.4339 8.66726C21.4418 8.66726 21.4497 8.66726 21.4576 8.66726C21.4654 8.66726 21.4733 8.66726 21.4811 8.66726C21.4889 8.66726 21.4967 8.66726 21.5045 8.66726C21.5123 8.66726 21.52 8.66726 21.5278 8.66726C21.5355 8.66726 21.5432 8.66726 21.5509 8.66726C21.5586 8.66726 21.5663 8.66726 21.5739 8.66726C21.5816 8.66726 21.5892 8.66726 21.5968 8.66726C21.6044 8.66726 21.6119 8.66726 21.6195 8.66726C21.627 8.66726 21.6346 8.66726 21.6421 8.66726C21.6496 8.66726 21.6571 8.66726 21.6645 8.66726C21.672 8.66726 21.6794 8.66726 21.6868 8.66726C21.6942 8.66726 21.7016 8.66726 21.709 8.66726C21.7164 8.66726 21.7237 8.66726 21.731 8.66726C21.7384 8.66726 21.7457 8.66726 21.7529 8.66726C21.7602 8.66726 21.7675 8.66726 21.7747 8.66726C21.7819 8.66726 21.7891 8.66726 21.7963 8.66726C21.8035 8.66726 21.8107 8.66726 21.8178 8.66726C21.825 8.66726 21.8321 8.66726 21.8392 8.66726C21.8463 8.66726 21.8534 8.66726 21.8604 8.66726C21.8675 8.66726 21.8745 8.66726 21.8815 8.66726C21.8885 8.66726 21.8955 8.66726 21.9025 8.66726C21.9094 8.66726 21.9164 8.66726 21.9233 8.66726C21.9302 8.66726 21.9371 8.66726 21.944 8.66726C21.9508 8.66726 21.9577 8.66726 21.9645 8.66726C21.9713 8.66726 21.9781 8.66726 21.9849 8.66726C21.9917 8.66726 21.9985 8.66726 22.0052 8.66726C22.0119 8.66726 22.0187 8.66726 22.0254 8.66726C22.032 8.66726 22.0387 8.66726 22.0454 8.66726C22.052 8.66726 22.0586 8.66726 22.0653 8.66726C22.0719 8.66726 22.0784 8.66726 22.085 8.66726C22.0916 8.66726 22.0981 8.66726 22.1046 8.66726C22.1111 8.66726 22.1176 8.66726 22.1241 8.66726C22.1306 8.66726 22.137 8.66726 22.1434 8.66726C22.1499 8.66726 22.1563 8.66726 22.1626 8.66726C22.169 8.66726 22.1754 8.66726 22.1817 8.66726C22.1881 8.66726 22.1944 8.66726 22.2007 8.66726C22.207 8.66726 22.2132 8.66726 22.2195 8.66726C22.2257 8.66726 22.232 8.66726 22.2382 8.66726C22.2444 8.66726 22.2506 8.66726 22.2567 8.66726C22.2629 8.66726 22.269 8.66726 22.2751 8.66726C22.2813 8.66726 22.2874 8.66726 22.2934 8.66726C22.2995 8.66726 22.3056 8.66726 22.3116 8.66726C22.3176 8.66726 22.3236 8.66726 22.3296 8.66726C22.3356 8.66726 22.3416 8.66726 22.3475 8.66726C22.3534 8.66726 22.3594 8.66726 22.3653 8.66726C22.3712 8.66726 22.377 8.66726 22.3829 8.66726C22.3888 8.66726 22.3946 8.66726 22.4004 8.66726C22.4062 8.66726 22.412 8.66726 22.4178 8.66726C22.4235 8.66726 22.4293 8.66726 22.435 8.66726C22.4407 8.66726 22.4464 8.66726 22.4521 8.66726C22.4578 8.66726 22.4634 8.66726 22.4691 8.66726C22.4747 8.66726 22.4803 8.66726 22.4859 8.66726C22.4915 8.66726 22.4971 8.66726 22.5026 8.66726C22.5082 8.66726 22.5137 8.66726 22.5192 8.66726C22.5247 8.66726 22.5302 8.66726 22.5357 8.66726C22.5412 8.66726 22.5466 8.66726 22.552 8.66726C22.5574 8.66726 22.5628 8.66726 22.5682 8.66726C22.5736 8.66726 22.5789 8.66726 22.5843 8.66726C22.5896 8.66726 22.5949 8.66726 22.6002 8.66726C22.6055 8.66726 22.6108 8.66726 22.616 8.66726C22.6213 8.66726 22.6265 8.66726 22.6317 8.66726C22.6369 8.66726 22.6421 8.66726 22.6473 8.66726C22.6524 8.66726 22.6576 8.66726 22.6627 8.66726C22.6678 8.66726 22.6729 8.66726 22.678 8.66726C22.6831 8.66726 22.6881 8.66726 22.6932 8.66726C22.6982 8.66726 22.7032 8.66726 22.7082 8.66726C22.7132 8.66726 22.7182 8.66726 22.7231 8.66726C22.728 8.66726 22.733 8.66726 22.7379 8.66726C22.7428 8.66726 22.7477 8.66726 22.7525 8.66726C22.7574 8.66726 22.7622 8.66726 22.7671 8.66726C22.7719 8.66726 22.7767 8.66726 22.7815 8.66726C22.7862 8.66726 22.791 8.66726 22.7957 8.66726C22.8005 8.66726 22.8052 8.66726 22.8099 8.66726C22.8146 8.66726 22.8193 8.66726 22.8239 8.66726C22.8286 8.66726 22.8332 8.66726 22.8378 8.66726C22.8424 8.66726 22.847 8.66726 22.8516 8.66726C22.8561 8.66726 22.8607 8.66726 22.8652 8.66726C22.8697 8.66726 22.8742 8.66726 22.8787 8.66726C22.8832 8.66726 22.8877 8.66726 22.8921 8.66726C22.8965 8.66726 22.901 8.66726 22.9054 8.66726C22.9098 8.66726 22.9141 8.66726 22.9185 8.66726C22.9229 8.66726 22.9272 8.66726 22.9315 8.66726C22.9358 8.66726 22.9401 8.66726 22.9444 8.66726C22.9487 8.66726 22.9529 8.66726 22.9572 8.66726C22.9614 8.66726 22.9656 8.66726 22.9698 8.66726C22.974 8.66726 22.9781 8.66726 22.9823 8.66726C22.9864 8.66726 22.9906 8.66726 22.9947 8.66726C22.9988 8.66726 23.0029 8.66726 23.0069 8.66726C23.011 8.66726 23.0151 8.66726 23.0191 8.66726C23.0231 8.66726 23.0271 8.66726 23.0311 8.66726C23.0351 8.66726 23.039 8.66726 23.043 8.66726C23.0469 8.66726 23.0508 8.66726 23.0547 8.66726C23.0586 8.66726 23.0625 8.66726 23.0664 8.66726C23.0702 8.66726 23.0741 8.66726 23.0779 8.66726C23.0817 8.66726 23.0855 8.66726 23.0893 8.66726C23.093 8.66726 23.0968 8.66726 23.1005 8.66726C23.1043 8.66726 23.108 8.66726 23.1117 8.66726C23.1154 8.66726 23.119 8.66726 23.1227 8.66726C23.1264 8.66726 23.13 8.66726 23.1336 8.66726C23.1372 8.66726 23.1408 8.66726 23.1444 8.66726C23.1479 8.66726 23.1515 8.66726 23.155 8.66726C23.1586 8.66726 23.1621 8.66726 23.1655 8.66726C23.169 8.66726 23.1725 8.66726 23.176 8.66726C23.1794 8.66726 23.1828 8.66726 23.1862 8.66726C23.1896 8.66726 23.193 8.66726 23.1964 8.66726C23.1998 8.66726 23.2031 8.66726 23.2064 8.66726C23.2098 8.66726 23.2131 8.66726 23.2164 8.66726C23.2196 8.66726 23.2229 8.66726 23.2262 8.66726C23.2294 8.66726 23.2326 8.66726 23.2358 8.66726C23.239 8.66726 23.2422 8.66726 23.2454 8.66726C23.2485 8.66726 23.2517 8.66726 23.2548 8.66726C23.2579 8.66726 23.261 8.66726 23.2641 8.66726C23.2672 8.66726 23.2703 8.66726 23.2733 8.66726C23.2763 8.66726 23.2794 8.66726 23.2824 8.66726C23.2854 8.66726 23.2884 8.66726 23.2913 8.66726C23.2943 8.66726 23.2972 8.66726 23.3001 8.66726C23.3031 8.66726 23.306 8.66726 23.3089 8.66726C23.3117 8.66726 23.3146 8.66726 23.3174 8.66726C23.3203 8.66726 23.3231 8.66726 23.3259 8.66726C23.3287 8.66726 23.3315 8.66726 23.3343 8.66726L23.3343 6.66726C23.3315 6.66726 23.3287 6.66726 23.3259 6.66726C23.3231 6.66726 23.3203 6.66726 23.3174 6.66726C23.3146 6.66726 23.3117 6.66726 23.3089 6.66726C23.306 6.66726 23.3031 6.66726 23.3001 6.66726C23.2972 6.66726 23.2943 6.66726 23.2913 6.66726C23.2884 6.66726 23.2854 6.66726 23.2824 6.66726C23.2794 6.66726 23.2763 6.66726 23.2733 6.66726C23.2703 6.66726 23.2672 6.66726 23.2641 6.66726C23.261 6.66726 23.2579 6.66726 23.2548 6.66726C23.2517 6.66726 23.2485 6.66726 23.2454 6.66726C23.2422 6.66726 23.239 6.66726 23.2358 6.66726C23.2326 6.66726 23.2294 6.66726 23.2262 6.66726C23.2229 6.66726 23.2196 6.66726 23.2164 6.66726C23.2131 6.66726 23.2098 6.66726 23.2064 6.66726C23.2031 6.66726 23.1998 6.66726 23.1964 6.66726C23.193 6.66726 23.1896 6.66726 23.1862 6.66726C23.1828 6.66726 23.1794 6.66726 23.176 6.66726C23.1725 6.66726 23.169 6.66726 23.1655 6.66726C23.1621 6.66726 23.1586 6.66726 23.155 6.66726C23.1515 6.66726 23.1479 6.66726 23.1444 6.66726C23.1408 6.66726 23.1372 6.66726 23.1336 6.66726C23.13 6.66726 23.1264 6.66726 23.1227 6.66726C23.119 6.66726 23.1154 6.66726 23.1117 6.66726C23.108 6.66726 23.1043 6.66726 23.1005 6.66726C23.0968 6.66726 23.093 6.66726 23.0893 6.66726C23.0855 6.66726 23.0817 6.66726 23.0779 6.66726C23.0741 6.66726 23.0702 6.66726 23.0664 6.66726C23.0625 6.66726 23.0586 6.66726 23.0547 6.66726C23.0508 6.66726 23.0469 6.66726 23.043 6.66726C23.039 6.66726 23.0351 6.66726 23.0311 6.66726C23.0271 6.66726 23.0231 6.66726 23.0191 6.66726C23.0151 6.66726 23.011 6.66726 23.0069 6.66726C23.0029 6.66726 22.9988 6.66726 22.9947 6.66726C22.9906 6.66726 22.9864 6.66726 22.9823 6.66726C22.9781 6.66726 22.974 6.66726 22.9698 6.66726C22.9656 6.66726 22.9614 6.66726 22.9572 6.66726C22.9529 6.66726 22.9487 6.66726 22.9444 6.66726C22.9401 6.66726 22.9358 6.66726 22.9315 6.66726C22.9272 6.66726 22.9229 6.66726 22.9185 6.66726C22.9141 6.66726 22.9098 6.66726 22.9054 6.66726C22.901 6.66726 22.8965 6.66726 22.8921 6.66726C22.8877 6.66726 22.8832 6.66726 22.8787 6.66726C22.8742 6.66726 22.8697 6.66726 22.8652 6.66726C22.8607 6.66726 22.8561 6.66726 22.8516 6.66726C22.847 6.66726 22.8424 6.66726 22.8378 6.66726C22.8332 6.66726 22.8286 6.66726 22.8239 6.66726C22.8193 6.66726 22.8146 6.66726 22.8099 6.66726C22.8052 6.66726 22.8005 6.66726 22.7957 6.66726C22.791 6.66726 22.7862 6.66726 22.7815 6.66726C22.7767 6.66726 22.7719 6.66726 22.7671 6.66726C22.7622 6.66726 22.7574 6.66726 22.7525 6.66726C22.7477 6.66726 22.7428 6.66726 22.7379 6.66726C22.733 6.66726 22.728 6.66726 22.7231 6.66726C22.7182 6.66726 22.7132 6.66726 22.7082 6.66726C22.7032 6.66726 22.6982 6.66726 22.6932 6.66726C22.6881 6.66726 22.6831 6.66726 22.678 6.66726C22.6729 6.66726 22.6678 6.66726 22.6627 6.66726C22.6576 6.66726 22.6524 6.66726 22.6473 6.66726C22.6421 6.66726 22.6369 6.66726 22.6317 6.66726C22.6265 6.66726 22.6213 6.66726 22.616 6.66726C22.6108 6.66726 22.6055 6.66726 22.6002 6.66726C22.5949 6.66726 22.5896 6.66726 22.5843 6.66726C22.5789 6.66726 22.5736 6.66726 22.5682 6.66726C22.5628 6.66726 22.5574 6.66726 22.552 6.66726C22.5466 6.66726 22.5412 6.66726 22.5357 6.66726C22.5302 6.66726 22.5247 6.66726 22.5192 6.66726C22.5137 6.66726 22.5082 6.66726 22.5026 6.66726C22.4971 6.66726 22.4915 6.66726 22.4859 6.66726C22.4803 6.66726 22.4747 6.66726 22.4691 6.66726C22.4634 6.66726 22.4578 6.66726 22.4521 6.66726C22.4464 6.66726 22.4407 6.66726 22.435 6.66726C22.4293 6.66726 22.4235 6.66726 22.4178 6.66726C22.412 6.66726 22.4062 6.66726 22.4004 6.66726C22.3946 6.66726 22.3888 6.66726 22.3829 6.66726C22.377 6.66726 22.3712 6.66726 22.3653 6.66726C22.3594 6.66726 22.3534 6.66726 22.3475 6.66726C22.3416 6.66726 22.3356 6.66726 22.3296 6.66726C22.3236 6.66726 22.3176 6.66726 22.3116 6.66726C22.3056 6.66726 22.2995 6.66726 22.2934 6.66726C22.2874 6.66726 22.2813 6.66726 22.2751 6.66726C22.269 6.66726 22.2629 6.66726 22.2567 6.66726C22.2506 6.66726 22.2444 6.66726 22.2382 6.66726C22.232 6.66726 22.2257 6.66726 22.2195 6.66726C22.2132 6.66726 22.207 6.66726 22.2007 6.66726C22.1944 6.66726 22.1881 6.66726 22.1817 6.66726C22.1754 6.66726 22.169 6.66726 22.1626 6.66726C22.1563 6.66726 22.1499 6.66726 22.1434 6.66726C22.137 6.66726 22.1306 6.66726 22.1241 6.66726C22.1176 6.66726 22.1111 6.66726 22.1046 6.66726C22.0981 6.66726 22.0916 6.66726 22.085 6.66726C22.0784 6.66726 22.0719 6.66726 22.0652 6.66726C22.0586 6.66726 22.052 6.66726 22.0454 6.66726C22.0387 6.66726 22.032 6.66726 22.0254 6.66726C22.0187 6.66726 22.0119 6.66726 22.0052 6.66726C21.9985 6.66726 21.9917 6.66726 21.9849 6.66726C21.9781 6.66726 21.9713 6.66726 21.9645 6.66726C21.9577 6.66726 21.9508 6.66726 21.944 6.66726C21.9371 6.66726 21.9302 6.66726 21.9233 6.66726C21.9164 6.66726 21.9094 6.66726 21.9025 6.66726C21.8955 6.66726 21.8885 6.66726 21.8815 6.66726C21.8745 6.66726 21.8675 6.66726 21.8604 6.66726C21.8534 6.66726 21.8463 6.66726 21.8392 6.66726C21.8321 6.66726 21.825 6.66726 21.8178 6.66726C21.8107 6.66726 21.8035 6.66726 21.7963 6.66726C21.7891 6.66726 21.7819 6.66726 21.7747 6.66726C21.7675 6.66726 21.7602 6.66726 21.7529 6.66726C21.7457 6.66726 21.7384 6.66726 21.731 6.66726C21.7237 6.66726 21.7164 6.66726 21.709 6.66726C21.7016 6.66726 21.6942 6.66726 21.6868 6.66726C21.6794 6.66726 21.672 6.66726 21.6645 6.66726C21.6571 6.66726 21.6496 6.66726 21.6421 6.66726C21.6346 6.66726 21.627 6.66726 21.6195 6.66726C21.6119 6.66726 21.6044 6.66726 21.5968 6.66726C21.5892 6.66726 21.5816 6.66726 21.5739 6.66726C21.5663 6.66726 21.5586 6.66726 21.5509 6.66726C21.5432 6.66726 21.5355 6.66726 21.5278 6.66726C21.52 6.66726 21.5123 6.66726 21.5045 6.66726C21.4967 6.66726 21.4889 6.66726 21.4811 6.66726C21.4733 6.66726 21.4654 6.66726 21.4576 6.66726C21.4497 6.66726 21.4418 6.66726 21.4339 6.66726C21.426 6.66726 21.418 6.66726 21.4101 6.66726C21.4021 6.66726 21.3941 6.66726 21.3861 6.66726C21.3781 6.66726 21.3701 6.66726 21.362 6.66726C21.354 6.66726 21.3459 6.66726 21.3378 6.66726C21.3297 6.66726 21.3215 6.66726 21.3134 6.66726C21.3053 6.66726 21.2971 6.66726 21.2889 6.66726C21.2807 6.66726 21.2725 6.66726 21.2642 6.66726C21.256 6.66726 21.2477 6.66726 21.2395 6.66726C21.2312 6.66726 21.2229 6.66726 21.2145 6.66726C21.2062 6.66726 21.1978 6.66726 21.1895 6.66726C21.1811 6.66726 21.1727 6.66726 21.1642 6.66726C21.1558 6.66726 21.1474 6.66726 21.1389 6.66726C21.1304 6.66726 21.1219 6.66726 21.1134 6.66726C21.1049 6.66726 21.0963 6.66726 21.0878 6.66726C21.0792 6.66726 21.0706 6.66726 21.062 6.66726C21.0534 6.66726 21.0448 6.66726 21.0361 6.66726C21.0275 6.66726 21.0188 6.66726 21.0101 6.66726C21.0014 6.66726 20.9926 6.66726 20.9839 6.66726C20.9751 6.66726 20.9663 6.66726 20.9575 6.66726C20.9487 6.66726 20.9399 6.66726 20.9311 6.66726C20.9222 6.66726 20.9134 6.66726 20.9045 6.66726C20.8956 6.66726 20.8867 6.66726 20.8777 6.66726C20.8688 6.66726 20.8598 6.66726 20.8508 6.66726C20.8418 6.66726 20.8328 6.66726 20.8238 6.66726C20.8147 6.66726 20.8057 6.66726 20.7966 6.66726C20.7875 6.66726 20.7784 6.66726 20.7693 6.66726C20.7602 6.66726 20.751 6.66726 20.7418 6.66726C20.7327 6.66726 20.7235 6.66726 20.7142 6.66726C20.705 6.66726 20.6958 6.66726 20.6865 6.66726C20.6772 6.66726 20.6679 6.66726 20.6586 6.66726C20.6493 6.66726 20.6399 6.66726 20.6306 6.66726C20.6212 6.66726 20.6118 6.66726 20.6024 6.66726C20.593 6.66726 20.5835 6.66726 20.5741 6.66726C20.5646 6.66726 20.5551 6.66726 20.5456 6.66726C20.5361 6.66726 20.5266 6.66726 20.517 6.66726C20.5075 6.66726 20.4979 6.66726 20.4883 6.66726C20.4787 6.66726 20.469 6.66726 20.4594 6.66726C20.4497 6.66726 20.4401 6.66726 20.4304 6.66726C20.4207 6.66726 20.4109 6.66726 20.4012 6.66726C20.3914 6.66726 20.3817 6.66726 20.3719 6.66726C20.3621 6.66726 20.3522 6.66726 20.3424 6.66726C20.3326 6.66726 20.3227 6.66726 20.3128 6.66726C20.3029 6.66726 20.293 6.66726 20.283 6.66726C20.2731 6.66726 20.2631 6.66726 20.2531 6.66726C20.2432 6.66726 20.2331 6.66726 20.2231 6.66726C20.2131 6.66726 20.203 6.66726 20.1929 6.66726C20.1828 6.66726 20.1727 6.66726 20.1626 6.66726C20.1525 6.66726 20.1423 6.66726 20.1321 6.66726C20.1219 6.66726 20.1117 6.66726 20.1015 6.66726C20.0913 6.66726 20.081 6.66726 20.0707 6.66726C20.0604 6.66726 20.0501 6.66726 20.0398 6.66726C20.0295 6.66726 20.0191 6.66726 20.0088 6.66726C19.9984 6.66726 19.988 6.66726 19.9776 6.66726C19.9671 6.66726 19.9567 6.66726 19.9462 6.66726C19.9357 6.66726 19.9252 6.66726 19.9147 6.66726C19.9042 6.66726 19.8936 6.66726 19.8831 6.66726C19.8725 6.66726 19.8619 6.66726 19.8513 6.66726C19.8407 6.66726 19.83 6.66726 19.8193 6.66726C19.8087 6.66726 19.798 6.66726 19.7873 6.66726C19.7765 6.66726 19.7658 6.66726 19.755 6.66726C19.7443 6.66726 19.7335 6.66726 19.7227 6.66726C19.7118 6.66726 19.701 6.66726 19.6901 6.66726C19.6793 6.66726 19.6684 6.66726 19.6575 6.66726C19.6466 6.66726 19.6356 6.66726 19.6246 6.66726C19.6137 6.66726 19.6027 6.66726 19.5917 6.66726C19.5807 6.66726 19.5696 6.66726 19.5586 6.66726C19.5475 6.66726 19.5364 6.66726 19.5253 6.66726C19.5142 6.66726 19.5031 6.66726 19.4919 6.66726C19.4807 6.66726 19.4696 6.66726 19.4583 6.66726C19.4471 6.66726 19.4359 6.66726 19.4246 6.66726C19.4134 6.66726 19.4021 6.66726 19.3908 6.66726C19.3795 6.66726 19.3681 6.66726 19.3568 6.66726C19.3454 6.66726 19.334 6.66726 19.3226 6.66726C19.3112 6.66726 19.2998 6.66726 19.2883 6.66726C19.2769 6.66726 19.2654 6.66726 19.2539 6.66726C19.2424 6.66726 19.2308 6.66726 19.2193 6.66726C19.2077 6.66726 19.1961 6.66726 19.1845 6.66726C19.1729 6.66726 19.1613 6.66726 19.1496 6.66726C19.138 6.66726 19.1263 6.66726 19.1146 6.66726C19.1029 6.66726 19.0911 6.66726 19.0794 6.66726C19.0676 6.66726 19.0558 6.66726 19.044 6.66726C19.0322 6.66726 19.0204 6.66726 19.0085 6.66726C18.9967 6.66726 18.9848 6.66726 18.9729 6.66726C18.961 6.66726 18.949 6.66726 18.9371 6.66726C18.9251 6.66726 18.9131 6.66726 18.9011 6.66726C18.8891 6.66726 18.8771 6.66726 18.865 6.66726C18.853 6.66726 18.8409 6.66726 18.8288 6.66726C18.8167 6.66726 18.8045 6.66726 18.7924 6.66726C18.7802 6.66726 18.768 6.66726 18.7558 6.66726C18.7436 6.66726 18.7314 6.66726 18.7191 6.66726C18.7068 6.66726 18.6946 6.66726 18.6822 6.66726C18.6699 6.66726 18.6576 6.66726 18.6452 6.66726C18.6329 6.66726 18.6205 6.66726 18.6081 6.66726C18.5957 6.66726 18.5832 6.66726 18.5708 6.66726C18.5583 6.66726 18.5458 6.66726 18.5333 6.66726C18.5208 6.66726 18.5082 6.66726 18.4957 6.66726C18.4831 6.66726 18.4705 6.66726 18.4579 6.66726C18.4453 6.66726 18.4326 6.66726 18.42 6.66726C18.4073 6.66726 18.3946 6.66726 18.3819 6.66726C18.3692 6.66726 18.3564 6.66726 18.3437 6.66726C18.3309 6.66726 18.3181 6.66726 18.3053 6.66726C18.2925 6.66726 18.2796 6.66726 18.2668 6.66726C18.2539 6.66726 18.241 6.66726 18.2281 6.66726C18.2151 6.66726 18.2022 6.66726 18.1892 6.66726C18.1763 6.66726 18.1633 6.66726 18.1502 6.66726C18.1372 6.66726 18.1242 6.66726 18.1111 6.66726C18.098 6.66726 18.0849 6.66726 18.0718 6.66726C18.0586 6.66726 18.0455 6.66726 18.0323 6.66726C18.0191 6.66726 18.0059 6.66726 17.9927 6.66726C17.9795 6.66726 17.9662 6.66726 17.9529 6.66726C17.9396 6.66726 17.9263 6.66726 17.913 6.66726C17.8997 6.66726 17.8863 6.66726 17.8729 6.66726C17.8595 6.66726 17.8461 6.66726 17.8327 6.66726C17.8193 6.66726 17.8058 6.66726 17.7923 6.66726C17.7788 6.66726 17.7653 6.66726 17.7518 6.66726C17.7382 6.66726 17.7247 6.66726 17.7111 6.66726C17.6975 6.66726 17.6839 6.66726 17.6702 6.66726C17.6566 6.66726 17.6429 6.66726 17.6292 6.66726C17.6155 6.66726 17.6018 6.66726 17.588 6.66726C17.5743 6.66726 17.5605 6.66726 17.5467 6.66726C17.5329 6.66726 17.5191 6.66726 17.5052 6.66726C17.4914 6.66726 17.4775 6.66726 17.4636 6.66726C17.4497 6.66726 17.4358 6.66726 17.4218 6.66726C17.4079 6.66726 17.3939 6.66726 17.3799 6.66726C17.3659 6.66726 17.3518 6.66726 17.3378 6.66726C17.3237 6.66726 17.3096 6.66726 17.2955 6.66726C17.2814 6.66726 17.2672 6.66726 17.2531 6.66726C17.2389 6.66726 17.2247 6.66726 17.2105 6.66726C17.1963 6.66726 17.182 6.66726 17.1678 6.66726C17.1535 6.66726 17.1392 6.66726 17.1249 6.66726C17.1106 6.66726 17.0962 6.66726 17.0818 6.66726C17.0675 6.66726 17.0531 6.66726 17.0386 6.66726C17.0242 6.66726 17.0097 6.66726 16.9953 6.66726C16.9808 6.66726 16.9663 6.66726 16.9517 6.66726C16.9372 6.66726 16.9227 6.66726 16.9081 6.66726C16.8935 6.66726 16.8789 6.66726 16.8642 6.66726C16.8496 6.66726 16.8349 6.66726 16.8202 6.66726C16.8055 6.66726 16.7908 6.66726 16.7761 6.66726C16.7613 6.66726 16.7466 6.66726 16.7318 6.66726C16.717 6.66726 16.7021 6.66726 16.6873 6.66726C16.6724 6.66726 16.6576 6.66726 16.6427 6.66726C16.6277 6.66726 16.6128 6.66726 16.5979 6.66726C16.5829 6.66726 16.5679 6.66726 16.5529 6.66726C16.5379 6.66726 16.5229 6.66726 16.5078 6.66726C16.4927 6.66726 16.4776 6.66726 16.4625 6.66726C16.4474 6.66726 16.4323 6.66726 16.4171 6.66726C16.4019 6.66726 16.3867 6.66726 16.3715 6.66726C16.3563 6.66726 16.341 6.66726 16.3257 6.66726C16.3105 6.66726 16.2952 6.66726 16.2798 6.66726C16.2645 6.66726 16.2491 6.66726 16.2338 6.66726C16.2184 6.66726 16.203 6.66726 16.1875 6.66726C16.1721 6.66726 16.1566 6.66726 16.1411 6.66726C16.1256 6.66726 16.1101 6.66726 16.0946 6.66726C16.079 6.66726 16.0635 6.66726 16.0479 6.66726C16.0323 6.66726 16.0166 6.66726 16.001 6.66726C15.9853 6.66726 15.9697 6.66726 15.9539 6.66726C15.9382 6.66726 15.9225 6.66726 15.9067 6.66726C15.891 6.66726 15.8752 6.66726 15.8594 6.66726C15.8436 6.66726 15.8277 6.66726 15.8119 6.66726C15.796 6.66726 15.7801 6.66726 15.7642 6.66726C15.7482 6.66726 15.7323 6.66726 15.7163 6.66726C15.7003 6.66726 15.6843 6.66726 15.6683 6.66726C15.6523 6.66726 15.6362 6.66726 15.6201 6.66726C15.604 6.66726 15.5879 6.66726 15.5718 6.66726C15.5557 6.66726 15.5395 6.66726 15.5233 6.66726C15.5071 6.66726 15.4909 6.66726 15.4746 6.66726C15.4584 6.66726 15.4421 6.66726 15.4258 6.66726C15.4095 6.66726 15.3932 6.66726 15.3768 6.66726C15.3605 6.66726 15.3441 6.66726 15.3277 6.66726C15.3113 6.66726 15.2948 6.66726 15.2783 6.66726C15.2619 6.66726 15.2454 6.66726 15.2289 6.66726C15.2123 6.66726 15.1958 6.66726 15.1792 6.66726C15.1626 6.66726 15.146 6.66726 15.1294 6.66726C15.1128 6.66726 15.0961 6.66726 15.0794 6.66726C15.0628 6.66726 15.046 6.66726 15.0293 6.66726C15.0126 6.66726 14.9958 6.66726 14.979 6.66726C14.9622 6.66726 14.9454 6.66726 14.9285 6.66726C14.9117 6.66726 14.8948 6.66726 14.8779 6.66726C14.861 6.66726 14.8441 6.66726 14.8271 6.66726C14.8102 6.66726 14.7932 6.66726 14.7762 6.66726C14.7591 6.66726 14.7421 6.66726 14.725 6.66726C14.708 6.66726 14.6909 6.66726 14.6737 6.66726C14.6566 6.66726 14.6395 6.66726 14.6223 6.66726C14.6051 6.66726 14.5879 6.66726 14.5707 6.66726C14.5534 6.66726 14.5362 6.66726 14.5189 6.66726C14.5016 6.66726 14.4843 6.66726 14.4669 6.66726C14.4496 6.66726 14.4322 6.66726 14.4148 6.66726C14.3974 6.66726 14.38 6.66726 14.3625 6.66726C14.345 6.66726 14.3276 6.66726 14.31 6.66726C14.2925 6.66726 14.275 6.66726 14.2574 6.66726C14.2399 6.66726 14.2223 6.66726 14.2046 6.66726C14.187 6.66726 14.1694 6.66726 14.1517 6.66726C14.134 6.66726 14.1163 6.66726 14.0986 6.66726C14.0808 6.66726 14.0631 6.66726 14.0453 6.66726C14.0275 6.66726 14.0097 6.66726 13.9918 6.66726C13.974 6.66726 13.9561 6.66726 13.9382 6.66726C13.9203 6.66726 13.9024 6.66726 13.8844 6.66726C13.8664 6.66726 13.8485 6.66726 13.8304 6.66726C13.8124 6.66726 13.7944 6.66726 13.7763 6.66726C13.7582 6.66726 13.7401 6.66726 13.722 6.66726C13.7039 6.66726 13.6857 6.66726 13.6676 6.66726C13.6494 6.66726 13.6312 6.66726 13.6129 6.66726C13.5947 6.66726 13.5764 6.66726 13.5581 6.66726C13.5398 6.66726 13.5215 6.66726 13.5032 6.66726C13.4848 6.66726 13.4664 6.66726 13.448 6.66726C13.4296 6.66726 13.4112 6.66726 13.3927 6.66726C13.3742 6.66726 13.3558 6.66726 13.3372 6.66726C13.3187 6.66726 13.3002 6.66726 13.2816 6.66726C13.263 6.66726 13.2444 6.66726 13.2258 6.66726C13.2071 6.66726 13.1885 6.66726 13.1698 6.66726C13.1511 6.66726 13.1324 6.66726 13.1136 6.66726C13.0949 6.66726 13.0761 6.66726 13.0573 6.66726C13.0385 6.66726 13.0197 6.66726 13.0008 6.66726C12.9819 6.66726 12.9631 6.66726 12.9441 6.66726C12.9252 6.66726 12.9063 6.66726 12.8873 6.66726C12.8683 6.66726 12.8493 6.66726 12.8303 6.66726C12.8113 6.66726 12.7922 6.66726 12.7731 6.66726C12.754 6.66726 12.7349 6.66726 12.7158 6.66726C12.6966 6.66726 12.6775 6.66726 12.6583 6.66726C12.6391 6.66726 12.6198 6.66726 12.6006 6.66726C12.5813 6.66726 12.562 6.66726 12.5427 6.66726C12.5234 6.66726 12.504 6.66726 12.4847 6.66726C12.4653 6.66726 12.4459 6.66726 12.4265 6.66726C12.407 6.66726 12.3876 6.66726 12.3681 6.66726C12.3486 6.66726 12.3291 6.66726 12.3095 6.66726C12.29 6.66726 12.2704 6.66726 12.2508 6.66726C12.2312 6.66726 12.2116 6.66726 12.1919 6.66726C12.1723 6.66726 12.1526 6.66726 12.1329 6.66726C12.1131 6.66726 12.0934 6.66726 12.0736 6.66726C12.0538 6.66726 12.034 6.66726 12.0142 6.66726C11.9944 6.66726 11.9745 6.66726 11.9546 6.66726C11.9347 6.66726 11.9148 6.66726 11.8949 6.66726C11.8749 6.66726 11.8549 6.66726 11.8349 6.66726C11.8149 6.66726 11.7949 6.66726 11.7748 6.66726C11.7548 6.66726 11.7347 6.66726 11.7146 6.66726C11.6944 6.66726 11.6743 6.66726 11.6541 6.66726C11.6339 6.66726 11.6137 6.66726 11.5935 6.66726C11.5732 6.66726 11.553 6.66726 11.5327 6.66726C11.5124 6.66726 11.4921 6.66726 11.4717 6.66726C11.4514 6.66726 11.431 6.66726 11.4106 6.66726C11.3902 6.66726 11.3697 6.66726 11.3492 6.66726C11.3288 6.66726 11.3083 6.66726 11.2878 6.66726C11.2672 6.66726 11.2467 6.66726 11.2261 6.66726C11.2055 6.66726 11.1849 6.66726 11.1642 6.66726C11.1436 6.66726 11.1229 6.66726 11.1022 6.66726C11.0815 6.66726 11.0608 6.66726 11.04 6.66726C11.0193 6.66726 10.9985 6.66726 10.9777 6.66726C10.9568 6.66726 10.936 6.66726 10.9151 6.66726C10.8942 6.66726 10.8733 6.66726 10.8524 6.66726C10.8314 6.66726 10.8105 6.66726 10.7895 6.66726C10.7685 6.66726 10.7475 6.66726 10.7264 6.66726C10.7054 6.66726 10.6843 6.66726 10.6632 6.66726C10.6421 6.66726 10.6209 6.66726 10.5997 6.66726C10.5786 6.66726 10.5574 6.66726 10.5361 6.66726C10.5149 6.66726 10.4936 6.66726 10.4724 6.66726C10.4511 6.66726 10.4298 6.66726 10.4084 6.66726C10.3871 6.66726 10.3657 6.66726 10.3443 6.66726C10.3229 6.66726 10.3014 6.66726 10.28 6.66726C10.2585 6.66726 10.237 6.66726 10.2155 6.66726C10.194 6.66726 10.1724 6.66726 10.1508 6.66726C10.1292 6.66726 10.1076 6.66726 10.086 6.66726C10.0643 6.66726 10.0427 6.66726 10.021 6.66726C9.99925 6.66726 9.97752 6.66726 9.95576 6.66726C9.934 6.66726 9.91221 6.66726 9.89039 6.66726C9.86857 6.66726 9.84672 6.66726 9.82483 6.66726C9.80295 6.66726 9.78104 6.66726 9.7591 6.66726C9.73717 6.66726 9.7152 6.66726 9.6932 6.66726C9.6712 6.66726 9.64917 6.66726 9.62711 6.66726C9.60505 6.66726 9.58296 6.66726 9.56084 6.66726C9.53873 6.66726 9.51658 6.66726 9.4944 6.66726C9.47222 6.66726 9.45002 6.66726 9.42778 6.66726C9.40554 6.66726 9.38327 6.66726 9.36098 6.66726C9.33868 6.66726 9.31635 6.66726 9.29399 6.66726C9.27164 6.66726 9.24925 6.66726 9.22683 6.66726C9.20442 6.66726 9.18197 6.66726 9.15949 6.66726C9.13702 6.66726 9.11451 6.66726 9.09197 6.66726C9.06944 6.66726 9.04687 6.66726 9.02427 6.66726C9.00168 6.66726 8.97905 6.66726 8.95639 6.66726C8.93374 6.66726 8.91105 6.66726 8.88833 6.66726C8.86562 6.66726 8.84287 6.66726 8.82009 6.66726C8.79732 6.66726 8.77451 6.66726 8.75167 6.66726C8.72884 6.66726 8.70597 6.66726 8.68307 6.66726C8.66017 6.66726 8.63725 6.66726 8.61429 6.66726C8.59133 6.66726 8.56834 6.66726 8.54533 6.66726C8.52231 6.66726 8.49926 6.66726 8.47618 6.66726C8.4531 6.66726 8.43 6.66726 8.40686 6.66726C8.38372 6.66726 8.36055 6.66726 8.33735 6.66726C8.31415 6.66726 8.29092 6.66726 8.26766 6.66726C8.2444 6.66726 8.22111 6.66726 8.19779 6.66726C8.17447 6.66726 8.15112 6.66726 8.12774 6.66726C8.10436 6.66726 8.08095 6.66726 8.05751 6.66726C8.03407 6.66726 8.01059 6.66726 7.98709 6.66726C7.96359 6.66726 7.94006 6.66726 7.91649 6.66726C7.89293 6.66726 7.86934 6.66726 7.84571 6.66726C7.82209 6.66726 7.79843 6.66726 7.77475 6.66726C7.75106 6.66726 7.72735 6.66726 7.7036 6.66726C7.67986 6.66726 7.65608 6.66726 7.63227 6.66726C7.60847 6.66726 7.58463 6.66726 7.56076 6.66726C7.5369 6.66726 7.513 6.66726 7.48907 6.66726C7.46514 6.66726 7.44118 6.66726 7.41719 6.66726C7.3932 6.66726 7.36918 6.66726 7.34513 6.66726C7.32108 6.66726 7.297 6.66726 7.27288 6.66726C7.24877 6.66726 7.22463 6.66726 7.20045 6.66726C7.17628 6.66726 7.15208 6.66726 7.12784 6.66726C7.10361 6.66726 7.07934 6.66726 7.05504 6.66726C7.03075 6.66726 7.00642 6.66726 6.98206 6.66726C6.9577 6.66726 6.93332 6.66726 6.9089 6.66726C6.88448 6.66726 6.86003 6.66726 6.83555 6.66726C6.81107 6.66726 6.78655 6.66726 6.76201 6.66726C6.73747 6.66726 6.71289 6.66726 6.68829 6.66726C6.66369 6.66726 6.63905 6.66726 6.61439 6.66726C6.58972 6.66726 6.56502 6.66726 6.5403 6.66726C6.51557 6.66726 6.49081 6.66726 6.46602 6.66726C6.44123 6.66726 6.41641 6.66726 6.39156 6.66726C6.36671 6.66726 6.34183 6.66726 6.31691 6.66726C6.292 6.66726 6.26706 6.66726 6.24208 6.66726C6.21711 6.66726 6.1921 6.66726 6.16706 6.66726C6.14203 6.66726 6.11696 6.66726 6.09186 6.66726C6.06676 6.66726 6.04163 6.66726 6.01647 6.66726C5.99131 6.66726 5.96611 6.66726 5.94089 6.66726C5.91567 6.66726 5.89041 6.66726 5.86513 6.66726C5.83984 6.66726 5.81453 6.66726 5.78918 6.66726C5.76383 6.66726 5.73845 6.66726 5.71304 6.66726C5.68763 6.66726 5.66219 6.66726 5.63672 6.66726C5.61124 6.66726 5.58574 6.66726 5.56021 6.66726C5.53467 6.66726 5.5091 6.66726 5.48351 6.66726C5.45791 6.66726 5.43228 6.66726 5.40662 6.66726C5.38096 6.66726 5.35527 6.66726 5.32955 6.66726C5.30383 6.66726 5.27807 6.66726 5.25229 6.66726C5.2265 6.66726 5.20069 6.66726 5.17484 6.66726C5.14899 6.66726 5.12311 6.66726 5.0972 6.66726C5.07129 6.66726 5.04535 6.66726 5.01938 6.66726C4.9934 6.66726 4.9674 6.66726 4.94136 6.66726C4.91533 6.66726 4.88926 6.66726 4.86316 6.66726C4.83706 6.66726 4.81093 6.66726 4.78477 6.66726C4.75861 6.66726 4.73241 6.66726 4.70619 6.66726C4.67997 6.66726 4.65371 6.66726 4.62742 6.66726C4.60113 6.66726 4.57481 6.66726 4.54846 6.66726C4.52211 6.66726 4.49573 6.66726 4.46932 6.66726C4.4429 6.66726 4.41646 6.66726 4.38998 6.66726C4.3635 6.66726 4.337 6.66726 4.31045 6.66726C4.28391 6.66726 4.25734 6.66726 4.23074 6.66726C4.20414 6.66726 4.1775 6.66726 4.15083 6.66726C4.12417 6.66726 4.09747 6.66726 4.07074 6.66726C4.04401 6.66726 4.01725 6.66726 3.99045 6.66726C3.96366 6.66726 3.93683 6.66726 3.90998 6.66726C3.88312 6.66726 3.85623 6.66726 3.82931 6.66726C3.80239 6.66726 3.77544 6.66726 3.74845 6.66726C3.72147 6.66726 3.69445 6.66726 3.66741 6.66726C3.64036 6.66726 3.61328 6.66726 3.58617 6.66726C3.55906 6.66726 3.53191 6.66726 3.50474 6.66726C3.47756 6.66726 3.45036 6.66726 3.42312 6.66726C3.39588 6.66726 3.36861 6.66726 3.3413 6.66726C3.314 6.66726 3.28667 6.66726 3.2593 6.66726C3.23193 6.66726 3.20454 6.66726 3.17711 6.66726C3.14968 6.66726 3.12221 6.66726 3.09472 6.66726C3.06722 6.66726 3.0397 6.66726 3.01214 6.66726C2.98458 6.66726 2.95699 6.66726 2.92937 6.66726C2.90174 6.66726 2.87409 6.66726 2.8464 6.66726C2.81872 6.66726 2.791 6.66726 2.76325 6.66726C2.7355 6.66726 2.70771 6.66726 2.6799 6.66726C2.65208 6.66726 2.62424 6.66726 2.59636 6.66726C2.56848 6.66726 2.54057 6.66726 2.51262 6.66726C2.48468 6.66726 2.4567 6.66726 2.4287 6.66726C2.40069 6.66726 2.37265 6.66726 2.34457 6.66726C2.3165 6.66726 2.2884 6.66726 2.26026 6.66726C2.23212 6.66726 2.20395 6.66726 2.17575 6.66726C2.14755 6.66726 2.11932 6.66726 2.09105 6.66726C2.06279 6.66726 2.03449 6.66726 2.00616 6.66726C1.97783 6.66726 1.94946 6.66726 1.92107 6.66726C1.89267 6.66726 1.86424 6.66726 1.83578 6.66726C1.80732 6.66726 1.77883 6.66726 1.75031 6.66726C1.72178 6.66726 1.69322 6.66726 1.66463 6.66726C1.63605 6.66726 1.60742 6.66726 1.57877 6.66726C1.55011 6.66726 1.52143 6.66726 1.49271 6.66726C1.46399 6.66726 1.43524 6.66726 1.40645 6.66726C1.37767 6.66726 1.34885 6.66726 1.32 6.66726C1.29115 6.66726 1.26227 6.66726 1.23335 6.66726C1.20444 6.66726 1.17549 6.66726 1.14651 6.66726C1.11753 6.66726 1.08852 6.66726 1.05948 6.66726C1.03043 6.66726 1.00135 6.66726 0.972244 6.66726C0.943133 6.66726 0.913991 6.66726 0.884815 6.66726C0.85564 6.66726 0.826432 6.66726 0.797191 6.66726C0.76795 6.66726 0.738677 6.66726 0.709371 6.66726C0.680064 6.66726 0.650726 6.66726 0.621354 6.66726C0.591983 6.66726 0.562578 6.66726 0.533141 6.66726C0.503704 6.66726 0.474234 6.66726 0.444732 6.66726C0.415229 6.66726 0.385694 6.66726 0.356125 6.66726C0.326557 6.66726 0.296956 6.66726 0.267323 6.66726C0.237688 6.66726 0.208022 6.66726 0.178322 6.66726C0.148623 6.66726 0.11889 6.66726 0.0891248 6.66726C0.05936 6.66726 0.0295618 6.66726 -0.000269629 6.66726L-0.00027005 8.66726Z" fill="black"/>
</svg>
