<svg width="1332" height="227" viewBox="0 0 1332 227" fill="none" xmlns="http://www.w3.org/2000/svg">
<path d="M200.518 1.99689H245.806V47.1121H200.518V1.99689Z" fill="black"/>
<path d="M821.23 1.99689H866.518V47.1121H821.23V1.99689Z" fill="black"/>
<path d="M0 151.758L47.0461 152.396C48.6463 174.076 65.9285 189.06 93.4521 189.06C115.535 189.06 131.857 179.496 131.857 161.961C131.857 143.15 113.615 139.324 76.1699 131.992C38.405 124.978 5.12066 112.862 5.12066 67.5899C5.12066 28.0562 38.0849 0 88.6515 0C141.458 0 175.063 27.4186 175.703 70.1405H128.657C126.416 51.3301 112.015 38.2584 88.6515 38.2584C68.1688 38.2584 53.4469 46.8666 53.4469 64.0829C53.4469 82.2556 71.0492 86.0815 108.174 93.0955C146.579 100.11 180.503 111.587 180.183 156.541C179.863 198.306 145.299 227 92.812 227C35.8447 227 0.320041 197.031 0 151.758Z" fill="black"/>
<path d="M200.666 225.087V61.2135H246.112V225.087H200.666Z" fill="black"/>
<path d="M272.438 225.087V1.91292H317.564V225.087H272.438Z" fill="black"/>
<path d="M425.5 227C370.773 227 337.809 194.162 337.809 143.469C337.809 92.4579 371.413 59.3006 422.3 59.3006C471.586 59.3006 504.87 89.9073 505.51 138.049C505.51 142.831 505.19 148.251 504.23 153.353H384.855V155.584C385.815 178.858 400.857 192.886 423.58 192.886C441.822 192.886 454.624 184.916 458.464 169.612H502.95C497.829 201.494 469.346 227 425.5 227ZM385.815 124.021H460.065C456.864 103.935 443.102 92.7767 422.62 92.7767C403.097 92.7767 388.375 104.573 385.815 124.021Z" fill="black"/>
<path d="M619.783 59.3006C655.307 59.3006 685.711 78.111 685.711 134.223V225.087H640.586V138.687C640.586 110.949 630.024 96.2837 607.301 96.2837C583.938 96.2837 570.496 112.862 570.496 141.237V225.087H525.37V61.2135H564.736L568.896 81.618C579.458 68.8652 594.5 59.3006 619.783 59.3006Z" fill="black"/>
<path d="M721.186 178.221V99.1531H693.982V61.2135H721.186V15.3034H766.312V61.2135H804.077V99.1531H766.312V170.888C766.312 182.365 770.792 187.147 782.634 187.147H805.037V225.087H768.232C736.868 225.087 721.186 209.465 721.186 178.221Z" fill="black"/>
<path d="M821.121 225.087V61.2135H866.567V225.087H821.121Z" fill="black"/>
<path d="M1002.67 143.15V61.2135H1047.79V225.087H1007.79L1003.63 205.32C993.066 218.073 978.664 227 955.301 227C921.377 227 890.013 210.103 890.013 152.077V61.2135H935.139V146.02C935.139 175.351 944.74 189.698 967.143 189.698C989.546 189.698 1002.67 173.438 1002.67 143.15Z" fill="black"/>
<path d="M1271.19 59.3006C1305.12 59.3006 1332 78.4298 1332 131.035V225.087H1286.87V133.586C1286.87 109.037 1277.91 96.2837 1258.39 96.2837C1238.87 96.2837 1225.75 110.631 1225.75 135.499V225.087H1180.62V133.586C1180.62 109.037 1171.66 96.2837 1151.82 96.2837C1132.29 96.2837 1119.49 111.268 1119.49 135.817V225.087H1074.37V61.2135H1113.73L1117.89 81.618C1127.81 68.8652 1142.22 59.6194 1166.22 59.3006C1186.38 58.9818 1205.26 66.3146 1215.51 87.0379C1227.03 69.5028 1246.23 59.3006 1271.19 59.3006Z" fill="black"/>
</svg>
