<svg width="51" height="28" viewBox="0 0 51 28" fill="none" xmlns="http://www.w3.org/2000/svg">
<path fill-rule="evenodd" clip-rule="evenodd" d="M19.5591 0H23.4708V3.91178H19.5591V0ZM15.6473 3.91178H19.559V6.84487L16.5469 7.82356H15.6473V3.91178ZM15.6472 8.1159V7.82356H11.7354V11.7353H12.1866L14.5595 8.46932L15.6472 8.1159ZM11.7354 12.3564V11.7353H7.82363V15.6471H9.34453L11.7354 12.3564ZM7.80016 19.5589H3.91181V23.4707V27.3825H7.80016V19.5589ZM43.1926 27.3825H46.9417V23.4707V19.5589V15.6471H43.0299V17.5489L43.1926 17.7728V27.3825ZM43.0299 17.5488V15.6471V11.7353H39.1181V12.1647L43.0299 17.5488ZM38.8062 11.7353H39.1181V7.82356H35.2063V8.07065L36.4333 8.46932L38.8062 11.7353ZM34.4459 7.82356H35.2063V3.91178H31.2945V6.79963L34.4459 7.82356ZM31.2945 6.79962V3.9464V3.91178V0.0346177H27.3827V3.91178V3.9464V5.5286L31.2945 6.79962ZM27.3827 5.52859V3.91178H23.4709V5.57384L25.4964 4.91571L27.3827 5.52859ZM23.4708 5.57385V3.91178H19.5591V6.84487L23.4708 5.57385ZM3.91181 15.6471V11.7353V7.82356H7.82359V11.7353V15.6471H3.91181ZM3.91178 15.6471H0V19.5589H3.91178V15.6471ZM43.0299 3.91178H39.1181V7.82356H43.0299V3.91178ZM46.9417 7.82356H43.0299V11.7353H46.9417V7.82356ZM35.2063 0H39.1181V3.91178H35.2063V0ZM50.8536 23.4707V27.3825H46.9418V23.4707H50.8536ZM15.6472 0H11.7354V3.91178H15.6472V0ZM7.82363 3.91178H11.7354V7.82356H7.82363V3.91178Z" fill="black"/>
<mask id="path-2-inside-1_902_521" fill="white">
<path fill-rule="evenodd" clip-rule="evenodd" d="M37.1999 7.93203L25.8765 4.29248L14.553 7.93203L7.55469 17.4605V27.3824H44.1982V17.4605L37.1999 7.93203Z"/>
</mask>
<path d="M25.8765 4.29248L26.9317 1.00937L25.8765 0.670197L24.8212 1.00937L25.8765 4.29248ZM37.1999 7.93203L39.9794 5.89066L39.3183 4.99063L38.2552 4.64892L37.1999 7.93203ZM14.553 7.93203L13.4977 4.64892L12.4346 4.99063L11.7736 5.89066L14.553 7.93203ZM7.55469 17.4605L4.77527 15.4191L4.10616 16.3302V17.4605H7.55469ZM7.55469 27.3824H4.10616V30.8309H7.55469V27.3824ZM44.1982 27.3824V30.8309H47.6468V27.3824H44.1982ZM44.1982 17.4605H47.6468V16.3302L46.9777 15.4191L44.1982 17.4605ZM24.8212 7.57559L36.1447 11.2151L38.2552 4.64892L26.9317 1.00937L24.8212 7.57559ZM15.6082 11.2151L26.9317 7.57559L24.8212 1.00937L13.4977 4.64892L15.6082 11.2151ZM10.3341 19.5019L17.3324 9.97341L11.7736 5.89066L4.77527 15.4191L10.3341 19.5019ZM11.0032 27.3824V17.4605H4.10616V27.3824H11.0032ZM7.55469 30.8309H44.1982V23.9338H7.55469V30.8309ZM40.7497 17.4605V27.3824H47.6468V17.4605H40.7497ZM34.4205 9.97341L41.4188 19.5019L46.9777 15.4191L39.9794 5.89066L34.4205 9.97341Z" fill="black" mask="url(#path-2-inside-1_902_521)"/>
</svg>
